<svg xmlns="http://www.w3.org/2000/svg" viewBox="0 0 228.71 86.94"><defs><style>.cls-1{fill:#fff;}</style></defs><title>art</title><g id="Layer_2" data-name="Layer 2"><g id="Layer_6" data-name="Layer 6"><path d="M72.81,57.48q7.31,17,12.51,28.38H83Q81.19,82,70.89,58.38,69,53.94,64.81,44.46T59.46,32.27q-4.38-10.05-6.35-14.73c-1.2-2.67-2.1-4.73-2.7-6.16-.16-.36-.41-.89-.74-1.59s-.59-1.23-.75-1.59l-.24-.72-.36-.71a2.53,2.53,0,0,0-.48-.66,2.78,2.78,0,0,0-.36-.6,12.57,12.57,0,0,0-3.11-2.7,2.89,2.89,0,0,0-.6-.35,4,4,0,0,0-1.2-.24,4,4,0,0,0-1,.35l-.3.18a1.8,1.8,0,0,1-.3.18A14.8,14.8,0,0,0,37.78,6a5,5,0,0,0-.36.66L37,7.36l-.72,1.56C35.8,10.2,35.36,11.24,35,12s-1,2.3-2,4.52-1.75,3.92-2.3,5.11q-5.76,13-6.53,14.73-.9,2-5.18,11.77t-6.2,14.22q-2,4.42-4.4,9.94T4.52,81.07c-.94,2.16-1.67,3.75-2.19,4.79H0l2-4.55q1.48-3.36,4-9t4.79-10.78q3.35-7.66,11.43-26,1.32-2.82,3.72-8.39t2.75-6.34q2.1-4.56,4.67-10.66c.68-1.36,1.26-2.64,1.74-3.83l.83-1.8.48-.9q0-.12.24-.36l.24-.36.3-.24c0-.07.08-.19.24-.35l.48-.48.48-.33.48-.33,1-.48.71-.36h.24l.24-.12h.36A2.66,2.66,0,0,1,42.57.12h1.32a1.65,1.65,0,0,1,.33.09l.39.15a7.59,7.59,0,0,1,3.71,2.1,1.26,1.26,0,0,1,.48.59l.24.36.12.12.12.24.48.9.41,1c0,.12.6,1.4,1.68,3.83.36,1,.94,2.28,1.74,3.95s1.29,2.76,1.49,3.24q2,4.67,6.35,14.72Q68.43,47.36,72.81,57.48ZM56.4,33.59q2.4,5.5,6.35,14.7t4.91,11.4q9.57,21.69,11.67,26.17H76.88Q75.62,83,71.73,74.15l-6-13.56Q55.21,36.29,54.43,34.43q-1.26-2.82-3.63-8.17c-1.57-3.58-2.52-5.74-2.84-6.5s-.82-2-1.5-3.47-1.12-2.5-1.31-2.94-.58-1.37-1.38-3.17l-.36-.72a.47.47,0,0,0-.72-.24q-.66,0-.66.48l-.36.84Q39,16.47,8.44,85.86H6Q7.3,83,15.81,63.77q3.53-8.15,11.55-26,1-2.22,3.06-7.12c1.39-3.28,2.49-5.81,3.29-7.61.28-.6.67-1.44,1.17-2.54s.94-2.1,1.34-3S37,15.77,37.3,15l1-2.22c.4-.79.72-1.49,1-2.09Q39.58,10,40.3,8.8c.47-.8.81-1.4,1-1.79l.48-.78a.75.75,0,0,1,.78-.6.93.93,0,0,1,1.08.24.7.7,0,0,1,.12.18.7.7,0,0,0,.12.18l.24.54c0,.08.31.55.81,1.4s.88,1.57,1.16,2.13q.18.36.51,1.08c.22.48.37.81.45,1s.29.61.51,1.11.39.87.51,1.11q.3.72.9,2.1c.4.91.69,1.63.9,2.15.63,1.44,1.69,3.81,3.17,7.13S55.64,31.83,56.4,33.59Zm-5.15,2.22q7,16,11.38,26.1,4.12,9.47,10.6,24H70.89q-4.19-9.35-8.5-19.4H23.05q-1.86,4.26-4.76,10.75t-3.8,8.65H12.15Q17.31,74.19,42.33,17.3l.12-.24a.56.56,0,0,0,.12-.18c0-.07.08-.11.12-.11a.5.5,0,0,1,.36.17l.12.24.6,1.32.57,1.29.57,1.29c.79,1.79,1.89,4.33,3.29,7.6S50.61,34.33,51.25,35.81ZM24,64.25H61.43l-.75-1.65L59.93,61H25.51l-.75,1.65Zm33.47-8.81H28l-.75,1.65-.75,1.65H59l-.75-1.65ZM42.81,21.67q-8.56,19.47-14,31.56H56.52q-2.46-5.56-7.18-16.5Z"/><path d="M135.46,62.27l15.33,23.41h-2.57L132.89,62.27H107.14V85.86h-2.09V11.38q0-.36.12-.36h27.12q.36.06,1.11.12c.5,0,.86.08,1.1.12,1.48.24,2.92.54,4.32.89a25.43,25.43,0,0,1,7.6,3.66,20.54,20.54,0,0,1,5.51,6A16.47,16.47,0,0,1,154.38,29l.12,1v.84c0,.23,0,.57-.06,1s-.06.76-.06,1-.08.51-.12.93-.08.73-.12.93a10.16,10.16,0,0,1-.54,1.79,17,17,0,0,1-3.29,6.41,21.82,21.82,0,0,1-5.15,4.67,24.7,24.7,0,0,1-6.11,2.81c-.16,0-.4.12-.74.24s-.59.2-.75.24a6.63,6.63,0,0,0-1.5.24H107.14v3.42h28.68a1.86,1.86,0,0,0,.78-.12l.84-.18.84-.18a6.46,6.46,0,0,0,1.73-.48,26.65,26.65,0,0,0,7-3.18A24.09,24.09,0,0,0,153,45a23.13,23.13,0,0,0,4-7.49,22,22,0,0,0,.72-8.86A19.51,19.51,0,0,0,154.86,20a24,24,0,0,0-6.4-6.89,29.56,29.56,0,0,0-8.69-4.19A25.14,25.14,0,0,0,135,8a21.52,21.52,0,0,0-4.91-.24h-28q-.12,0-.36.24a1.07,1.07,0,0,0-.12.48V85.86H99.54V9.58q0-.48.06-1.38c0-.6.06-1,.06-1.31a2,2,0,0,0,.12-.33,2,2,0,0,1,.12-.33.93.93,0,0,1,.54-.48H101l.6-.12a24.58,24.58,0,0,1,2.82-.12h25.62a31.78,31.78,0,0,1,19.64,5.87,26.23,26.23,0,0,1,7,7.48,23.36,23.36,0,0,1,3.17,9.58,26.45,26.45,0,0,1-.9,9.7,22.66,22.66,0,0,1-4.37,8.2,22.4,22.4,0,0,1-6.52,5.87,25.24,25.24,0,0,1-7.37,3.47,16.9,16.9,0,0,1-1.91.48,9.13,9.13,0,0,1-1.86.48H107.14v3.41h29.94l.36-.12c.24,0,.61-.12,1.11-.24s.86-.19,1.1-.23q.6-.12,2.1-.6A34.11,34.11,0,0,0,150,55a28.8,28.8,0,0,0,7.37-6.58,27.22,27.22,0,0,0,4.91-9.34,22.34,22.34,0,0,0,.59-2.7c.12-.43.28-1.33.48-2.69a24.26,24.26,0,0,1,.12-2.81,6.37,6.37,0,0,0-.06-.72,6.39,6.39,0,0,1-.06-.66,6.4,6.4,0,0,0-.12-1.44,24.72,24.72,0,0,0-3.65-10.9,27.24,27.24,0,0,0-7.84-8.5,30.71,30.71,0,0,0-10.48-5,28.42,28.42,0,0,0-5.63-1.19,20.41,20.41,0,0,0-2.81-.24,6.4,6.4,0,0,1-1.44-.12H103.25a11.36,11.36,0,0,0-2,.12,7,7,0,0,0-1.73.47,1.84,1.84,0,0,0-.72.24l-.72.36a1.4,1.4,0,0,0-.66.6,2.08,2.08,0,0,0-.27.36,2.11,2.11,0,0,1-.21.3,11.73,11.73,0,0,0-.83,3.29v78H93.91V11.62q.06-.84.06-2.4c0-1,0-1.82.06-2.33a7.2,7.2,0,0,1,1.2-3.84,5.15,5.15,0,0,0,.66-.59l.71-.72a2.82,2.82,0,0,1,.72-.54A3.39,3.39,0,0,1,98.1.72,9.92,9.92,0,0,1,100,.12,18.59,18.59,0,0,1,102.47,0h30.42c.32,0,.83.08,1.52.12s1.21.08,1.53.12c2.32.44,4.29.9,5.93,1.38a31.89,31.89,0,0,1,11,5.27,29.7,29.7,0,0,1,8.44,9.16,28.33,28.33,0,0,1,4.07,11.79,7.15,7.15,0,0,0,.06.75,7.32,7.32,0,0,1,.06.81v1.5a26,26,0,0,1-.12,2.93l-.18,1.47L165,36.76l-.36,1.47-.36,1.47A26.65,26.65,0,0,1,159,49.76a33.37,33.37,0,0,1-7.84,7.12,37.38,37.38,0,0,1-4.37,2.46L164,85.68h-2.57L144.68,60.05a19.32,19.32,0,0,1-2.33.9,1.93,1.93,0,0,1-.84.24l15.93,24.49h-2.58L139.17,61.79a6.39,6.39,0,0,1-1.37.24l-.48.12h-.24q0,.12-.24.12h-1.38Zm-28.32-45V49H135.7l.12-.12a3.86,3.86,0,0,0,1.14-.24l1.44-.36a19.26,19.26,0,0,0,10.17-6.77,17.34,17.34,0,0,0,3.12-5.63c0-.15.1-.42.18-.8s.14-.65.18-.81a10.11,10.11,0,0,1,.24-1.68V29.28a15.31,15.31,0,0,0-2.22-6.35,16.17,16.17,0,0,0-4.91-5.27,21.77,21.77,0,0,0-7-3.47,19.29,19.29,0,0,0-3.9-.72,14.15,14.15,0,0,0-2.09-.24h-25Z"/><path d="M174.05,3.17V1.08h54.66V3.17Zm0,5.63V6.65h54.66V8.8Zm21.07,5.69H174.05V12.27h54.66v2.22H208.48V86.94h-2.16V14.49H203V86.94h-2.22V14.49h-3.41V86.94h-2.22Z"/><path class="cls-1" d="M5.14,86l-1.83-.81c.35-.78,34.86-78.26,35.74-80.3a3.88,3.88,0,0,1,3.53-2.18,4.26,4.26,0,0,1,4.05,2.11c1.15,2.15,34,77.18,35.44,80.38l-1.83.8C68.4,59,45.76,7.4,44.86,5.73a2.35,2.35,0,0,0-2.19-1.05,2,2,0,0,0-1.79,1C40,7.7,6.56,82.78,5.14,86Z"/><path class="cls-1" d="M98.75,85.56h-2V6.68c0-2.58,1.38-4,3.9-4H134.5c8.85,0,28.24,6.65,28.24,26.4,0,20.83-18.89,29.84-28.53,29.84H110.88v-2h23.33c9,0,26.53-8.4,26.53-27.84,0-20-21-24.4-26.24-24.4H100.65c-1.2,0-1.9.33-1.9,2Z"/><rect class="cls-1" x="144.11" y="59.92" width="2" height="27.93" transform="translate(-16.75 91.65) rotate(-33.25)"/><rect class="cls-1" x="198.22" y="14.58" width="2" height="72.01"/><rect class="cls-1" x="173.92" y="4.11" width="54.37" height="2"/></g></g></svg>