<svg xmlns="http://www.w3.org/2000/svg" viewBox="0 0 345.55 85.86"><defs><style>.cls-1{fill:#fff;}</style></defs><title>home</title><g id="Layer_2" data-name="Layer 2"><g id="Layer_6" data-name="Layer 6"><path d="M2.22,85.86H0V0H2.22Zm5.5,0H5.63V0H7.72Zm5.63-50.29H59.46V0h2.21V85.86H59.46V48.92H13.35V85.86H11.14V0h2.21Zm46.11,5.62V37.78H13.35v3.41Zm-46.11,2.1V46.7H59.46V43.29Zm54,42.57H65.08V0H67.3Zm3.47,0V0h2V85.86Z"/><path d="M167.26,38a44.45,44.45,0,0,1-.12,11.14,30.33,30.33,0,0,1-1.26,5.63,44.47,44.47,0,0,1-2,5.56,41.74,41.74,0,0,1-21.07,21.44A44,44,0,0,1,137,84a40.29,40.29,0,0,1-6.17,1.32,37,37,0,0,1-6.35.54,56.09,56.09,0,0,1-6.28-.42,60.74,60.74,0,0,1-6.11-1.32,43.08,43.08,0,0,1-11.44-5.27A41.32,41.32,0,0,1,85.05,60.47a56.53,56.53,0,0,1-2-5.56,51.88,51.88,0,0,1-1.14-5.63,43.35,43.35,0,0,1-.24-11.14,45.41,45.41,0,0,1,2.46-10.3,37.52,37.52,0,0,1,4.55-8.74A42,42,0,0,1,112.89,1.62a46.61,46.61,0,0,1,8.5-1.5A19.29,19.29,0,0,1,123.73,0h1.43a18.11,18.11,0,0,1,2.22.12,43.33,43.33,0,0,1,8.44,1.5A38.11,38.11,0,0,1,148,7a42.35,42.35,0,0,1,12.27,12,40.33,40.33,0,0,1,4.55,8.86A42,42,0,0,1,167.26,38ZM164.92,48.8A39,39,0,0,0,165,38.26a35.88,35.88,0,0,0-2.34-9.7,33.24,33.24,0,0,0-4.31-8.32A37.34,37.34,0,0,0,146.78,8.8a37.23,37.23,0,0,0-11.44-5.15,40.14,40.14,0,0,0-8.08-1.31,15.26,15.26,0,0,0-2.1-.12h-1.43a18.11,18.11,0,0,0-2.22.12,40.84,40.84,0,0,0-8,1.31A39.36,39.36,0,0,0,102,8.8,38.87,38.87,0,0,0,90.32,20.24a41.61,41.61,0,0,0-4.13,8.44,33.82,33.82,0,0,0-2.34,9.7A42.11,42.11,0,0,0,84,48.92a40.4,40.4,0,0,0,1.08,5.39c.28,1,.93,2.75,2,5.27A38.59,38.59,0,0,0,101.87,77a37.17,37.17,0,0,0,10.78,5q4.42,1.08,5.93,1.26a51.18,51.18,0,0,0,5.86.36,52.19,52.19,0,0,0,6-.36,53.36,53.36,0,0,0,5.87-1.38,28.41,28.41,0,0,0,5.57-2.1A42.51,42.51,0,0,0,147.14,77a40,40,0,0,0,14.79-17.54,42.9,42.9,0,0,0,1.85-5.27A37.45,37.45,0,0,0,164.92,48.8Zm-5.39-19a33.51,33.51,0,0,1,2.16,8.92,44.19,44.19,0,0,1-.12,9.7,37,37,0,0,1-1.08,4.91,32.15,32.15,0,0,1-1.74,4.79,36.43,36.43,0,0,1-13.47,16,37.57,37.57,0,0,1-20.84,6.11,37.52,37.52,0,0,1-34.36-22c-.84-2.28-1.4-3.91-1.68-4.91a33.62,33.62,0,0,1-1-4.91,36.2,36.2,0,0,1-.24-9.7,36.89,36.89,0,0,1,2.22-8.92,30.83,30.83,0,0,1,4-7.61,36.42,36.42,0,0,1,10.54-10.59,37.45,37.45,0,0,1,10.54-4.73,52.89,52.89,0,0,1,7.36-1.26H127a44.71,44.71,0,0,1,7.36,1.26,33.61,33.61,0,0,1,10.54,4.73,36.44,36.44,0,0,1,10.66,10.47A32.88,32.88,0,0,1,159.53,29.82Zm-.18,18.26a33.1,33.1,0,0,0,.18-9.1,36.24,36.24,0,0,0-2-8.44,43.26,43.26,0,0,0-3.72-7.25,34.54,34.54,0,0,0-10.06-9.82A32.72,32.72,0,0,0,133.91,9a37.25,37.25,0,0,0-7-1.2,7.63,7.63,0,0,0-1.05-.06,3.29,3.29,0,0,1-.81-.06h-1.19a4.4,4.4,0,0,1-.9.06,7.9,7.9,0,0,0-1.08.06A37.09,37.09,0,0,0,115,9a31.56,31.56,0,0,0-9.93,4.43A35,35,0,0,0,95,23.41a34.45,34.45,0,0,0-3.66,7.13,40.5,40.5,0,0,0-2,8.44,40,40,0,0,0,.12,9.22c.08.6.42,2.12,1,4.55a39.53,39.53,0,0,0,1.55,4.49,35.27,35.27,0,0,0,32.39,20.84A35.8,35.8,0,0,0,144,72.33a34.6,34.6,0,0,0,12.76-15.09q1.31-3.35,1.61-4.49A33.57,33.57,0,0,0,159.35,48.08Zm-5-16.35a35.94,35.94,0,0,1,1.8,7.61,32.27,32.27,0,0,1-2.46,16.58,29.76,29.76,0,0,1-11.49,13.47,31.48,31.48,0,0,1-17.79,5.27,32,32,0,0,1-17.66-5.15A29.88,29.88,0,0,1,95.23,55.92a24.69,24.69,0,0,1-1.44-4.07,26.22,26.22,0,0,1-.9-4.13,33,33,0,0,1-.12-8.38,29.27,29.27,0,0,1,1.74-7.61,49.27,49.27,0,0,1,3.29-6.46,33.51,33.51,0,0,1,9.1-9,31.83,31.83,0,0,1,8.92-4,38.71,38.71,0,0,1,6.29-1,10.78,10.78,0,0,1,1.74-.12H125a9.91,9.91,0,0,1,1.62.12,35.88,35.88,0,0,1,6.23,1,31.44,31.44,0,0,1,9.1,4,32.87,32.87,0,0,1,9,9A36,36,0,0,1,154.38,31.73Zm-.54,15.57a28.05,28.05,0,0,0,.12-7.72,26.26,26.26,0,0,0-1.67-7.07,29.61,29.61,0,0,0-3.06-6,30.82,30.82,0,0,0-8.5-8.32,31.57,31.57,0,0,0-8.32-3.77,41.26,41.26,0,0,0-5.87-1h-4.19a34.89,34.89,0,0,0-5.87,1,30.3,30.3,0,0,0-8.38,3.77,31.12,31.12,0,0,0-8.44,8.32,32.12,32.12,0,0,0-3.06,6,35.18,35.18,0,0,0-1.73,7.07A31,31,0,0,0,95,47.3c.28,1.52.57,2.84.89,4A33.4,33.4,0,0,0,97.2,55,27.73,27.73,0,0,0,108,67.66a28.11,28.11,0,0,0,16.46,4.79A30.07,30.07,0,0,0,141,67.66,28,28,0,0,0,151.63,55a33.38,33.38,0,0,0,1.5-3.89A24.32,24.32,0,0,0,153.84,47.3Z"/><path d="M271.28,13.71l2.1,9.34,14.13,62.51h-2.22l-14-62.15-2-8.68-.72-3.35a3.68,3.68,0,0,1-.24-.75,5.9,5.9,0,0,0-.24-.81l-.36-1.5-.6-1.19L267,6.89l-.3-.24-.24-.54a11.21,11.21,0,0,0-1.31-1.68,7.54,7.54,0,0,0-2-1.38,9.14,9.14,0,0,0-2.57-.71,9.29,9.29,0,0,0-2.58,0,9,9,0,0,0-2.57.83,16.77,16.77,0,0,0-1.74,1.26q-.12.12-.36.42t-.36.42q-.12.18-.36.48t-.36.48l-.59,1.13a2.07,2.07,0,0,0-.42.6l-.24.72-.12.36a.64.64,0,0,0-.12.21.64.64,0,0,1-.12.21l-.24.84L250,11.92,240,44l-7.6,24.91a2.12,2.12,0,0,1-.18.29c-.08.12-.14.23-.18.3a1.88,1.88,0,0,1-.48.36,1.38,1.38,0,0,1-1.26-.12,2.89,2.89,0,0,1-.48-1.19l-.36-1.26-3.83-12.87-8.92-30.54-2.58-8.68L213.33,12l-.54-1.62-.24-.72a1.07,1.07,0,0,1-.09-.3q0-.18-.06-.3a.38.38,0,0,0-.09-.18l-.24-.72-.36-.72-.6-1.13a8.58,8.58,0,0,0-.78-.84L210.09,5l-.36-.36a8.34,8.34,0,0,0-1.43-1.26,4.44,4.44,0,0,0-2.22-1,8.21,8.21,0,0,0-5,.35,6.35,6.35,0,0,0-2,1.08l-.18.21-.18.21-.36.36-.54.72a.94.94,0,0,1-.18.24.94.94,0,0,0-.18.24l-.24.48-.36.54-.12.24a.35.35,0,0,0-.12.23l-.6,1.2-.48,1.62L178.36,85.86h-2.22L193.81,8l.59-1.73q.12-.24.36-.66t.36-.66a.46.46,0,0,1,.06-.18.46.46,0,0,0,.06-.18l.3-.24.36-.54.48-.48.12-.12.24-.24.72-.59.36-.36a.69.69,0,0,1,.27-.12.69.69,0,0,0,.27-.12A9.55,9.55,0,0,1,203.51.12a12.23,12.23,0,0,1,2.81.12,12.52,12.52,0,0,1,2.45.84,8.76,8.76,0,0,1,1.08.66q.6.42.72.48a.64.64,0,0,0,.21.12.64.64,0,0,1,.21.12l.48.47.36.36.24.24.24.24L213,5a6.75,6.75,0,0,1,.42.72l.35.9a.7.7,0,0,1,.12.18A.7.7,0,0,0,214,7l.12.47.24,1,.6,1.86,1.14,3.77,2.69,9.22,8.92,30.54,3.48,11.79,6.7-22.21,10.3-33.11.6-1.86.3-1a.66.66,0,0,0,.12-.47l.24-.36.36-.9.36-.72.84-1.26.12-.12.12-.12.24-.24.53-.48.36-.35a1.88,1.88,0,0,0,.48-.36A17.35,17.35,0,0,1,255,1a12.64,12.64,0,0,1,2.81-.72,13,13,0,0,1,3.06,0,9.4,9.4,0,0,1,2.81.72A6.92,6.92,0,0,1,266,2.22a15.93,15.93,0,0,1,1.74,1.55l.36.54.24.24.24.24a14.09,14.09,0,0,0,.72,1.32L270,8a9.13,9.13,0,0,0,.48,1.86Zm-5.15,2.46L268,24.25l13.83,61.31h-2.21L265.9,24.67l-1.74-7.49L263.44,14l-.36-1.68c-.12-.47-.24-1-.36-1.61a4.86,4.86,0,0,0-1-2.1A1.85,1.85,0,0,0,260,7.84a3.69,3.69,0,0,0-1.62,0,2.68,2.68,0,0,0-1.32.72,4.83,4.83,0,0,0-1,2.46l-.48,1.61-1,3.06L245.3,45.74,240.63,61l-2.46,7.61-1.31,4.55c-.16.48-.66,1.77-1.5,3.89a9.83,9.83,0,0,1-1,1.73,5,5,0,0,1-1.74,1.08,4.32,4.32,0,0,1-4.19-.48.7.7,0,0,0-.18-.12.7.7,0,0,1-.18-.12l-.36-.36-.2-.32-.24-.33a1.58,1.58,0,0,1-.15-.24q-.06-.12-.18-.42T226.8,77l-.36-1L226,75l-.36-1-.36-1.13-.24-1.08L220.39,56l-8.92-30.53L207.4,11.62a7,7,0,0,0-1-2.58A2.6,2.6,0,0,0,205.18,8a2.67,2.67,0,0,0-2.57.24,3.61,3.61,0,0,0-1.08,1.38,25.19,25.19,0,0,0-.84,2.69l-.78,3.3L184,85.86h-2.22l16.47-72.51c0-.08.4-1.41,1.19-4q.66-1.68.72-1.74a3.9,3.9,0,0,1,1.5-1.49,5.77,5.77,0,0,1,4.19-.36A4.65,4.65,0,0,1,207.52,7a8.08,8.08,0,0,1,.9,1.55c.79,2,1.27,3.36,1.43,3.95s.39,1.22.69,2.22.53,1.74.69,2.21l2.33,8,8.93,30.53,4.31,14.67.84,3.24c.07.2.22.6.44,1.19s.35,1,.39,1.14a3.32,3.32,0,0,0,1.14,1.92,2.7,2.7,0,0,0,2.46.36,2.49,2.49,0,0,0,1.19-1.2,6.92,6.92,0,0,0,1-2.7l8.92-28.91,9.58-31c.2-.6.48-1.41.84-2.42s.58-1.63.66-1.83L255,8.08a8,8,0,0,1,1.2-1.61,6.62,6.62,0,0,1,2-.72,7.58,7.58,0,0,1,2.22-.12,5.62,5.62,0,0,1,2,.72,4.05,4.05,0,0,1,1.44,1.49l.39.93.39.93a11.84,11.84,0,0,0,.6,2.1c.12.51.28,1.24.48,2.18S266,15.65,266.13,16.17Zm-5,2.45,1.5,6.77,13.59,60.17H274L260.51,25.87l-1.38-6.23L250.57,47.3,245.9,62.51l-2.58,8.26L241,78.38c-.08.2-.2.47-.36.83s-.28.64-.36.84a7.12,7.12,0,0,1-.42.69,7.12,7.12,0,0,0-.42.69l-.12.12-.12.12-.24.24-.42.48-.24.24-.24.24-.36.42a14.2,14.2,0,0,1-2,1.19,9.21,9.21,0,0,1-2.58.84,9.78,9.78,0,0,1-5.62-.36,3.17,3.17,0,0,1-.69-.24l-.51-.24a9.58,9.58,0,0,0-1-.6,7.94,7.94,0,0,1-.84-.77,2.69,2.69,0,0,1-.84-.72l-.54-.48-.23-.36-.24-.24-.72-1.38q-.12-.3-.36-.84c-.16-.36-.28-.63-.36-.83l-.54-1.86-5.51-18.92L204.34,21l-14.72,64.9H187.4l15.21-67.12.36-1.2a1.42,1.42,0,0,1,.18-.6.94.94,0,0,1,.48-.53,1.25,1.25,0,0,1,1.19-.12,1.79,1.79,0,0,0,.24.18l.24.18a1.86,1.86,0,0,1,.24.65l2.76,9,8.8,30.54,5.27,17.66.36,1.62a6.14,6.14,0,0,1,.29.72q.18.48.3.72l.66,1.25a7.15,7.15,0,0,0,.72,1l.18.33a3.28,3.28,0,0,0,.21.33,2.25,2.25,0,0,0,.21.24,5.82,5.82,0,0,0,.72.84,2.69,2.69,0,0,0,.39.3,2.69,2.69,0,0,1,.39.3,5.26,5.26,0,0,0,1.08.6,7.43,7.43,0,0,0,5,.54,10.93,10.93,0,0,0,2.34-1,10.6,10.6,0,0,0,1.5-1.44l.36-.42.17-.24a1.79,1.79,0,0,1,.18-.24c.36-.56.56-.87.6-1s.2-.32.36-.62.28-.51.36-.63a12.16,12.16,0,0,1,.66-1.44l1.92-6.41,2.45-8,4.67-15.21,8.86-28.56.36-1.2a6.09,6.09,0,0,0,.24-.59,1.93,1.93,0,0,1,.36-.66,1.3,1.3,0,0,1,1.26-.24q.84.3,1,.72c.08.24.18.65.3,1.22S261,18.38,261.1,18.62Z"/><path d="M321.07,0h24.48V2.22H306.22a21.36,21.36,0,0,0-2.7.12,11.26,11.26,0,0,0-2.21.59l-.48.18-.48.18-.9.9a7.24,7.24,0,0,0-.84,1.92,8.13,8.13,0,0,0-.36,2.57V77.12a8.13,8.13,0,0,0,.36,2.57,8.83,8.83,0,0,0,.84,2,3.86,3.86,0,0,0,.9.72,5.38,5.38,0,0,0,1,.48,8.69,8.69,0,0,0,2.21.65h42v2.16H305.5a22.6,22.6,0,0,1-3.24-.12,6.67,6.67,0,0,1-2.45-.84l-.48-.27a2.63,2.63,0,0,1-.48-.33,4.69,4.69,0,0,1-1-1,8,8,0,0,1-1.25-2A7.74,7.74,0,0,1,296,78V7.72a6.51,6.51,0,0,1,.6-2.93,8.46,8.46,0,0,1,1.25-2.1,2.82,2.82,0,0,1,1-.95,2,2,0,0,1,1-.66,4.7,4.7,0,0,1,2.45-1A29.89,29.89,0,0,1,305.5,0h15.57ZM309,5.63h36.52V7.84H304.36q-.12,0-.48.36V77.48l.48.48h41.19v2.21H309q-.6-.06-1.83-.06c-.81,0-1.42,0-1.82-.06a10.4,10.4,0,0,1-1.86-.12,2.66,2.66,0,0,1-.84-.12.71.71,0,0,1-.65-.48,16.78,16.78,0,0,1-.36-3.65V10.18A17.09,17.09,0,0,1,302,6.47a1.37,1.37,0,0,1,.65-.6,2.06,2.06,0,0,0,.84-.12q.3,0,.93-.06t.93-.06Zm.36,5.63h36.16v2.21h-36v22.1h31v2.21h-31v3.41h31v2.22h-31v3.41h31V49h-31V72.33h36v2.21h-38a.21.21,0,0,1-.24-.24V11.38a.35.35,0,0,1,.24-.12h1.86Z"/><path class="cls-1" d="M9.72,85.86H7.63V0H9.72Zm3.63-42.57V45.5H59.46V43.29Zm52,42.57H63.08V0H65.3Z"/><path class="cls-1" d="M161.83,29a35.65,35.65,0,0,1,2.29,9.5A47.52,47.52,0,0,1,164,48.8,41.41,41.41,0,0,1,162.85,54a35.33,35.33,0,0,1-1.85,5.1,38.93,38.93,0,0,1-14.35,17.1,40.16,40.16,0,0,1-22.2,6.5A40,40,0,0,1,87.83,59.26c-.89-2.43-1.49-4.17-1.78-5.23A35.81,35.81,0,0,1,85,48.8a38.5,38.5,0,0,1-.25-10.34A39.22,39.22,0,0,1,87.07,29a32.44,32.44,0,0,1,4.21-8.1A38.8,38.8,0,0,1,102.5,9.57a40.1,40.1,0,0,1,11.23-5,54.85,54.85,0,0,1,7.85-1.34h5.61A46.71,46.71,0,0,1,135,4.53a36,36,0,0,1,11.22,5,38.74,38.74,0,0,1,11.36,11.16A35,35,0,0,1,161.83,29Zm-.19,19.45a35.41,35.41,0,0,0,.19-9.69,38.15,38.15,0,0,0-2.11-9A46.44,46.44,0,0,0,155.77,22a36.93,36.93,0,0,0-10.72-10.47,34.92,34.92,0,0,0-10.52-4.72,40.11,40.11,0,0,0-7.47-1.27A8.4,8.4,0,0,0,126,5.48a3.64,3.64,0,0,1-.86-.06h-1.28a5,5,0,0,1-1,.06,8.71,8.71,0,0,0-1.15.07,39.73,39.73,0,0,0-7.33,1.27,33.7,33.7,0,0,0-10.59,4.72A37.7,37.7,0,0,0,93.06,22.13a36.89,36.89,0,0,0-3.89,7.59,42.56,42.56,0,0,0-2.1,9,42.89,42.89,0,0,0,.12,9.82c.09.64.45,2.26,1.09,4.85a42,42,0,0,0,1.66,4.78,36,36,0,0,0,13.71,16.08,36.45,36.45,0,0,0,20.8,6.12,38.2,38.2,0,0,0,20.86-6.12,36.85,36.85,0,0,0,13.58-16.08c.94-2.38,1.51-4,1.73-4.78A36.59,36.59,0,0,0,161.64,48.41Z"/><path class="cls-1" d="M198.24,13.35c0-.08.4-1.41,1.19-4q.66-1.68.72-1.74a3.9,3.9,0,0,1,1.5-1.49,5.77,5.77,0,0,1,4.19-.36A4.65,4.65,0,0,1,207.52,7a8.08,8.08,0,0,1,.9,1.55c.79,2,1.27,3.36,1.43,3.95s.39,1.22.69,2.22.53,1.74.69,2.21l2.33,8,8.93,30.53,4.31,14.67.84,3.24c.07.2.22.6.44,1.19s.35,1,.39,1.14a3.32,3.32,0,0,0,1.14,1.92,2.7,2.7,0,0,0,2.46.36,2.49,2.49,0,0,0,1.19-1.2,6.92,6.92,0,0,0,1-2.7l8.92-28.91,9.58-31c.2-.6.48-1.41.84-2.42s.58-1.63.66-1.83L255,8.08a8,8,0,0,1,1.2-1.61,6.62,6.62,0,0,1,2-.72,7.58,7.58,0,0,1,2.22-.12,5.62,5.62,0,0,1,2,.72,4.05,4.05,0,0,1,1.44,1.49l.39.93.39.93a11.84,11.84,0,0,0,.6,2.1c.12.51.28,1.24.48,2.18s.35,1.67.47,2.19L268,24.25l13.83,61.31,2,0L269.94,23.8l-1.86-8.08c-.12-.51-.27-1.23-.47-2.16s-.36-1.69-.48-2.21l0-.12,0-.12a11.16,11.16,0,0,1-.51-1.71l0-.23L266.43,9,266,8c-.17-.39-.3-.69-.37-.88L265.6,7l-.08-.13a5.94,5.94,0,0,0-2.13-2.2,7.49,7.49,0,0,0-2.68-1,4.87,4.87,0,0,0-.89-.07,13.14,13.14,0,0,0-2,.18l-.1,0a8.82,8.82,0,0,0-2.56.94l-.23.13-.19.19a10,10,0,0,0-1.51,2l-.08.14-.77,2c-.08.21-.31.84-.69,1.9s-.64,1.85-.86,2.5l-9.58,31-8.95,29,0,.1a5,5,0,0,1-.67,1.91l-.07.09-.06.11a1.56,1.56,0,0,1-.21.31h-.14a.62.62,0,0,1-.37-.12,1.37,1.37,0,0,1-.39-.79,13.16,13.16,0,0,0-.45-1.34c-.19-.52-.33-.89-.42-1.12l-.82-3.18-4.31-14.67-8.93-30.53-2.35-8c-.16-.46-.38-1.18-.67-2.16s-.53-1.72-.69-2.21-.43-1.4-1.49-4.11l0-.08,0-.08a8.84,8.84,0,0,0-1.2-2,6.68,6.68,0,0,0-2.36-1.74l-.14-.07-.15,0a9,9,0,0,0-2.21-.29,7.67,7.67,0,0,0-3.47.84,6,6,0,0,0-2.18,2.12,14.57,14.57,0,0,0-.92,2.13l0,.14c-.88,2.89-1.16,3.8-1.25,4.21l-16.55,72.9h2.05Z"/><path class="cls-1" d="M345.55,3.41V5.63h-41.4c-3,0-2.57,5.39-2.57,5.39V77.48s.19,2.74,2.73,2.74h41.24v2.21l-42.48-.12c-2.58,0-3.19-2.66-3.35-3a16.78,16.78,0,0,1-.36-3.65V10.18c0-4.79,1.45-6.77,3.71-6.77Zm-36,40.17h31V45.8h-31"/></g></g></svg>