<svg xmlns="http://www.w3.org/2000/svg" viewBox="0 0 182.09 174.88"><defs><style>.cls-1{stroke:#fff;stroke-linecap:round;stroke-linejoin:round;stroke-width:5px;}</style></defs><title>logoKoan</title><g id="Layer_2" data-name="Layer 2"><g id="Layer_6" data-name="Layer 6"><path class="cls-1" d="M66.22,2.5c.54.08,1.09.14,1.62.25a9.35,9.35,0,0,1,7.4,8,9.31,9.31,0,0,1-3.7,8.88Q60.77,28.28,50,37L25.63,56.78l-.51.43,3.56,2.88L58.21,84c4.52,3.67,9.06,7.31,13.56,11A9.46,9.46,0,0,1,68,111.61a8.72,8.72,0,0,1-2.1.23q-9.8,0-19.59,0a1.11,1.11,0,0,1-.7-.27Q38.5,105,31.38,98.42A2,2,0,0,0,29,98a2,2,0,0,0-1.08,2.2l1.23,11.45s0,.08,0,.17h-.46c-5.48,0-11,0-16.44,0a9.77,9.77,0,0,1-9.73-9.74V12.29a9.78,9.78,0,0,1,9.18-9.72A3,3,0,0,0,12,2.5H29.09a1.54,1.54,0,0,1,0,.37q-.6,5.81-1.21,11.61A2.28,2.28,0,0,0,28.19,16a2,2,0,0,0,3.25.27c2-1.85,3.94-3.71,5.91-5.56L46,2.5Z"/><path class="cls-1" d="M179.59,105.46a16,16,0,0,1-.51,1.92,6.94,6.94,0,0,1-6.51,4.47H150.73a.75.75,0,0,1-.66-.35q-5.79-7.28-11.6-14.54a1.27,1.27,0,0,0-1.51-.56,1.29,1.29,0,0,0-.86,1.37l0,12.41v1.66h-.5q-9.48,0-18.95,0a9.71,9.71,0,0,1-9.76-8.62,9.34,9.34,0,0,1,3.6-8.91q14.55-11.62,29.16-23.19c.08-.07.18-.13.3-.22l2.25,2.77q3.06,3.76,6.11,7.52a1.08,1.08,0,0,0,1.3.44,1.12,1.12,0,0,0,.72-1.18V64.73a4.79,4.79,0,0,1,4.9-4.88h19.29a4.86,4.86,0,0,1,5,4.15.61.61,0,0,0,.07.14Z"/><path class="cls-1" d="M179.59,53.68c-.09.31-.16.63-.27.93a4,4,0,0,1-3.69,2.6H157.28l-.28,0V49.45c0-1.47,0-3,0-4.42a.81.81,0,0,0-.24-.58q-6.65-5.69-13.33-11.34l-.25-.2-5.58,8.6L135.68,40c-8.48-6.88-17-13.73-25.43-20.63A8.86,8.86,0,0,1,107,10a9,9,0,0,1,7-7.14c.62-.16,1.27-.21,1.91-.31h54.22c.12,0,.24.06.36.07a9.77,9.77,0,0,1,8.81,7.26c.14.55.23,1.12.34,1.68ZM157,33.36a1.9,1.9,0,0,0,0-.21V23.71a1.62,1.62,0,0,0-.72-1.36l-2.76-2.06a1.6,1.6,0,0,0-2.58.46l-2.36,3.64a1.63,1.63,0,0,0,.42,2.53l4.76,3.85Z"/><path class="cls-1" d="M64.36,172.38l-1.89-.16a20.39,20.39,0,0,1-11.28-4.44A19.17,19.17,0,0,1,44,154a19.65,19.65,0,0,1,3.93-13.86,19.28,19.28,0,0,1,11.54-7.33,22.8,22.8,0,0,1,15,1.39,18.86,18.86,0,0,1,11.32,15.12,19.28,19.28,0,0,1-5,16.52,19.69,19.69,0,0,1-10.94,6c-1.34.27-2.72.32-4.09.47a1.34,1.34,0,0,0-.27.07Zm.38-9.65a10.71,10.71,0,0,0,4.31-.81,10.37,10.37,0,0,0,5.41-14.4A10.78,10.78,0,0,0,62.71,142a10.45,10.45,0,0,0,2,20.72Z"/><path class="cls-1" d="M118.07,57.38a27,27,0,1,1-26.6-27.06A27,27,0,0,1,118.07,57.38ZM94.55,76.83a19.41,19.41,0,0,1-12.82-6.68,19.48,19.48,0,0,1,.58-26.22,19.32,19.32,0,0,1,12.36-6,19.79,19.79,0,1,0-.12,38.92Zm5.07-31.29a12,12,0,0,0-12.49,3.79,12.26,12.26,0,0,0-.51,15.42,12.13,12.13,0,0,0,13.06,4.43,12,12,0,0,1-.06-23.64Zm7,11.83a4.77,4.77,0,1,0-4.79,4.77A4.77,4.77,0,0,0,106.61,57.37Z"/><path class="cls-1" d="M169.25,156.43V133.29h9.82v38h-9.41a.75.75,0,0,1-.67-.34q-8.81-11.24-17.62-22.45c-.08-.11-.17-.21-.32-.38v23.13H141.2v-38h9.47a.74.74,0,0,1,.63.31q8.77,11.2,17.57,22.4C169,156.09,169.06,156.2,169.25,156.43Z"/><path class="cls-1" d="M12.87,155v16.28H3v-38h9.84v15.45l.09,0,.25-.29c3.77-4.92,7.56-9.84,11.32-14.76a1.09,1.09,0,0,1,1-.49c3.68,0,7.36,0,11,0h.58l-15.06,18,16.44,20a2.88,2.88,0,0,1-.35,0H26a.68.68,0,0,1-.59-.33L13.1,155.11l-.13-.17Z"/><path class="cls-1" d="M117.36,133.27q7.23,19,14.45,38l-.37,0h-9.77a.47.47,0,0,1-.54-.38c-.65-2-1.33-3.88-2-5.82a.49.49,0,0,0-.58-.4q-6.6,0-13.21,0a.52.52,0,0,0-.59.43c-.69,2.05-1.4,4.1-2.11,6.15H92.12c.17-.44.32-.87.48-1.28q6.87-18.09,13.74-36.16a.73.73,0,0,1,.81-.56c3.23,0,6.46,0,9.69,0Zm-9.8,23.85h8.81L112,144.55Z"/><path class="cls-1" d="M80.25,24.22V20h21.57v4.27Z"/><path d="M66.22,2.5c.54.08,1.09.14,1.62.25a9.35,9.35,0,0,1,7.4,8,9.31,9.31,0,0,1-3.7,8.88Q60.77,28.28,50,37L25.63,56.78l-.51.43,3.56,2.88L58.21,84c4.52,3.67,9.06,7.31,13.56,11A9.46,9.46,0,0,1,68,111.61a8.72,8.72,0,0,1-2.1.23q-9.8,0-19.59,0a1.11,1.11,0,0,1-.7-.27Q38.5,105,31.38,98.42A2,2,0,0,0,29,98a2,2,0,0,0-1.08,2.2l1.23,11.45s0,.08,0,.17h-.46c-5.48,0-11,0-16.44,0a9.77,9.77,0,0,1-9.73-9.74V12.29a9.78,9.78,0,0,1,9.18-9.72A3,3,0,0,0,12,2.5H29.09a1.54,1.54,0,0,1,0,.37q-.6,5.81-1.21,11.61A2.28,2.28,0,0,0,28.19,16a2,2,0,0,0,3.25.27c2-1.85,3.94-3.71,5.91-5.56L46,2.5Z"/><path d="M179.59,105.46a16,16,0,0,1-.51,1.92,6.94,6.94,0,0,1-6.51,4.47H150.73a.75.75,0,0,1-.66-.35q-5.79-7.28-11.6-14.54a1.27,1.27,0,0,0-1.51-.56,1.29,1.29,0,0,0-.86,1.37l0,12.41v1.66h-.5q-9.48,0-18.95,0a9.71,9.71,0,0,1-9.76-8.62,9.34,9.34,0,0,1,3.6-8.91q14.55-11.62,29.16-23.19c.08-.07.18-.13.3-.22l2.25,2.77q3.06,3.76,6.11,7.52a1.08,1.08,0,0,0,1.3.44,1.12,1.12,0,0,0,.72-1.18V64.73a4.79,4.79,0,0,1,4.9-4.88h19.29a4.86,4.86,0,0,1,5,4.15.61.61,0,0,0,.07.14Z"/><path d="M179.59,53.68c-.09.31-.16.63-.27.93a4,4,0,0,1-3.69,2.6H157.28l-.28,0V49.45c0-1.47,0-3,0-4.42a.81.81,0,0,0-.24-.58q-6.65-5.69-13.33-11.34l-.25-.2-5.58,8.6L135.68,40c-8.48-6.88-17-13.73-25.43-20.63A8.86,8.86,0,0,1,107,10a9,9,0,0,1,7-7.14c.62-.16,1.27-.21,1.91-.31h54.22c.12,0,.24.06.36.07a9.77,9.77,0,0,1,8.81,7.26c.14.55.23,1.12.34,1.68ZM157,33.36a1.9,1.9,0,0,0,0-.21V23.71a1.62,1.62,0,0,0-.72-1.36l-2.76-2.06a1.6,1.6,0,0,0-2.58.46l-2.36,3.64a1.63,1.63,0,0,0,.42,2.53l4.76,3.85Z"/><path d="M64.36,172.38l-1.89-.16a20.39,20.39,0,0,1-11.28-4.44A19.17,19.17,0,0,1,44,154a19.65,19.65,0,0,1,3.93-13.86,19.28,19.28,0,0,1,11.54-7.33,22.8,22.8,0,0,1,15,1.39,18.86,18.86,0,0,1,11.32,15.12,19.28,19.28,0,0,1-5,16.52,19.69,19.69,0,0,1-10.94,6c-1.34.27-2.72.32-4.09.47a1.34,1.34,0,0,0-.27.07Zm.38-9.65a10.71,10.71,0,0,0,4.31-.81,10.37,10.37,0,0,0,5.41-14.4A10.78,10.78,0,0,0,62.71,142a10.45,10.45,0,0,0,2,20.72Z"/><path d="M118.07,57.38a27,27,0,1,1-26.6-27.06A27,27,0,0,1,118.07,57.38ZM94.55,76.83a19.41,19.41,0,0,1-12.82-6.68,19.48,19.48,0,0,1,.58-26.22,19.32,19.32,0,0,1,12.36-6,19.79,19.79,0,1,0-.12,38.92Zm5.07-31.29a12,12,0,0,0-12.49,3.79,12.26,12.26,0,0,0-.51,15.42,12.13,12.13,0,0,0,13.06,4.43,12,12,0,0,1-.06-23.64Zm7,11.83a4.77,4.77,0,1,0-4.79,4.77A4.77,4.77,0,0,0,106.61,57.37Z"/><path d="M169.25,156.43V133.29h9.82v38h-9.41a.75.75,0,0,1-.67-.34q-8.81-11.24-17.62-22.45c-.08-.11-.17-.21-.32-.38v23.13H141.2v-38h9.47a.74.74,0,0,1,.63.31q8.77,11.2,17.57,22.4C169,156.09,169.06,156.2,169.25,156.43Z"/><path d="M12.87,155v16.28H3v-38h9.84v15.45l.09,0,.25-.29c3.77-4.92,7.56-9.84,11.32-14.76a1.09,1.09,0,0,1,1-.49c3.68,0,7.36,0,11,0h.58l-15.06,18,16.44,20a2.88,2.88,0,0,1-.35,0H26a.68.68,0,0,1-.59-.33L13.1,155.11l-.13-.17Z"/><path d="M117.36,133.27q7.23,19,14.45,38l-.37,0h-9.77a.47.47,0,0,1-.54-.38c-.65-2-1.33-3.88-2-5.82a.49.49,0,0,0-.58-.4q-6.6,0-13.21,0a.52.52,0,0,0-.59.43c-.69,2.05-1.4,4.1-2.11,6.15H92.12c.17-.44.32-.87.48-1.28q6.87-18.09,13.74-36.16a.73.73,0,0,1,.81-.56c3.23,0,6.46,0,9.69,0Zm-9.8,23.85h8.81L112,144.55Z"/><path d="M80.25,24.22V20h21.57v4.27Z"/></g></g></svg>