<svg xmlns="http://www.w3.org/2000/svg" viewBox="0 0 294.42 86.46"><defs><style>.cls-1{fill:#fff;}</style></defs><title>play</title><g id="Layer_2" data-name="Layer 2"><g id="Layer_6" data-name="Layer 6"><path d="M67.9,28.81a28.12,28.12,0,0,1-.84,11.67,30.82,30.82,0,0,1-4.67,9.94,35.52,35.52,0,0,1-15.45,12,38.43,38.43,0,0,1-8.44,2.22l-2,.18-2,.18H13.23v20.9H11.14V11.26a.69.69,0,0,1,.48-.12H33.83A25.33,25.33,0,0,1,49.4,16.77a24.09,24.09,0,0,1,5.15,6.17A18.6,18.6,0,0,1,57,30.18a21,21,0,0,1-.6,7.37,18.59,18.59,0,0,1-3,6.34A22.69,22.69,0,0,1,42.81,52.1a25.22,25.22,0,0,1-5.93,1.49,19.92,19.92,0,0,1-2.69.24h-21v3.42h17.9A59.47,59.47,0,0,0,37.36,57,28.69,28.69,0,0,0,44,55.21a24.78,24.78,0,0,0,12-9.34,24.48,24.48,0,0,0,3.65-7.48,22.68,22.68,0,0,0,.6-8.69,23,23,0,0,0-2.81-8.5,24.19,24.19,0,0,0-6-7A26.29,26.29,0,0,0,34,7.85q-13.23,0-19.76-.12H8.92a1.54,1.54,0,0,1-.48.09A.79.79,0,0,0,8,8q-.24.24-.24.36V85.87H5.63V8.57A4.87,4.87,0,0,1,5.69,8a4.87,4.87,0,0,0,.06-.6,1,1,0,0,1,.12-.6.89.89,0,0,1,.24-.66,1.2,1.2,0,0,1,.72-.3l.53-.06A5,5,0,0,0,8,5.69a5,5,0,0,1,.66-.06H34a29.39,29.39,0,0,1,18.92,6.89,26,26,0,0,1,6.47,7.6,23.11,23.11,0,0,1,3.17,9.28A25.54,25.54,0,0,1,61.79,39a27.53,27.53,0,0,1-3.95,8.21,29.24,29.24,0,0,1-13,10.06,45.55,45.55,0,0,1-7.07,1.85c-1.6.16-2.75.24-3.47.24a31.18,31.18,0,0,1-3.18.12H13.23v3.29h21.2a18.9,18.9,0,0,0,3.71-.36,32.19,32.19,0,0,0,8-2,31.13,31.13,0,0,0,14.49-11.2A25.56,25.56,0,0,0,65,39.88a29.65,29.65,0,0,0,.9-10.83,27,27,0,0,0-3.59-10.54A29,29,0,0,0,55,10a34.05,34.05,0,0,0-9.81-5.54A35.27,35.27,0,0,0,34.07,2.22H10.66a22.51,22.51,0,0,0-3.95.24,5.15,5.15,0,0,0-1.56.48,6.15,6.15,0,0,0-1.38.84,2.1,2.1,0,0,0-.48.66,2.94,2.94,0,0,1-.18.3,2.94,2.94,0,0,0-.18.3,8.7,8.7,0,0,0-.48,1.61,17,17,0,0,0-.23,3.77V85.87H0V7.49a5.63,5.63,0,0,1,.36-2.1,9.28,9.28,0,0,1,.36-.95.69.69,0,0,0,.12-.27A2,2,0,0,1,1,3.84a.7.7,0,0,1,.12-.18,2.79,2.79,0,0,0,.48-.72,9.42,9.42,0,0,1,.77-.72A12.29,12.29,0,0,1,3.65,1.08,14.07,14.07,0,0,1,5.51.37,25.63,25.63,0,0,1,10.18.13H34.07A37.41,37.41,0,0,1,46,2.31,33.9,33.9,0,0,1,56.4,8.21a36.91,36.91,0,0,1,7.85,9.22A28.64,28.64,0,0,1,67.9,28.81ZM13.23,13.36V51.74H34.07q.42-.06,1.29-.12c.57,0,1-.08,1.28-.12A24.46,24.46,0,0,0,42,50.06a21.78,21.78,0,0,0,9.58-7.36,19,19,0,0,0,2.7-5.81,17.64,17.64,0,0,0,.48-6.47,19.31,19.31,0,0,0-2.1-6.52A18.82,18.82,0,0,0,48,18.51a21.23,21.23,0,0,0-14.13-5.15H13.23Z"/><path d="M90.2,83.65h39.57v2.22H84.57a6.65,6.65,0,0,1-2.34-.54,19,19,0,0,1-1.85-1.08q-.12-.12-.42-.36t-.42-.36q-.12-.18-.36-.48a3,3,0,0,1-.3-.42,10.5,10.5,0,0,1-1-1.91,8.42,8.42,0,0,1-.36-2.64V0h2.1V74.79a12,12,0,0,1,0,1.56,15.62,15.62,0,0,0,0,1.73,3.89,3.89,0,0,0,.3,1.26,7.77,7.77,0,0,0,.6,1.86,2.55,2.55,0,0,0,.48.71l.39.36c.18.16.3.28.38.36a7.38,7.38,0,0,0,1.68.66,5.63,5.63,0,0,0,2.1.36Zm.36-5.57h39.21V80.3H87.26c-2-.2-3-.32-3.05-.36a.67.67,0,0,1-.66-.36,1.84,1.84,0,0,1-.24-.72,6.77,6.77,0,0,1-.12-1.5,32.45,32.45,0,0,1-.12-3.29V0h2.22V77.24a.69.69,0,0,0,.12.48.54.54,0,0,0,.48.36Zm19.87-5.63h19.34v2.22H88.94q-.24,0-.24-.36V0h2.22V72.45Z"/><path d="M211.17,57.49q7.31,17,12.51,28.38h-2.33q-1.8-3.84-12.1-27.49-1.91-4.43-6.07-13.92c-2.78-6.32-4.56-10.39-5.36-12.18q-4.38-10.07-6.35-14.73c-1.2-2.67-2.09-4.73-2.69-6.17-.16-.36-.41-.89-.75-1.58s-.59-1.23-.75-1.59L187,7.49l-.36-.72a2.53,2.53,0,0,0-.48-.66,2.78,2.78,0,0,0-.36-.6,12.57,12.57,0,0,0-3.11-2.69,2.78,2.78,0,0,0-.6-.36,4,4,0,0,0-1.2-.24,3.38,3.38,0,0,0-1,.36,2.15,2.15,0,0,0-.3.18l-.3.18A14.89,14.89,0,0,0,176.14,6a5,5,0,0,0-.36.66l-.42.72-.71,1.56c-.48,1.27-.92,2.31-1.32,3.11l-2,4.52c-1,2.22-1.74,3.92-2.3,5.12q-5.75,13-6.53,14.73-.9,2-5.18,11.76t-6.19,14.22q-2,4.44-4.41,9.94t-3.83,8.75c-.94,2.15-1.66,3.75-2.18,4.79h-2.34l2-4.55q1.5-3.36,3.95-9t4.79-10.77q3.36-7.66,11.44-26,1.3-2.8,3.71-8.38T167,20.84q2.1-4.55,4.67-10.66c.68-1.35,1.26-2.63,1.74-3.83l.84-1.79.48-.9q0-.12.24-.36l.24-.36.29-.24q0-.12.24-.36l.48-.48.48-.33.48-.33,1-.48L179,.37h.24l.24-.12h.36a2.59,2.59,0,0,1,1.13-.12h1.32a1.65,1.65,0,0,1,.33.09l.39.15a7.45,7.45,0,0,1,3.71,2.09,1.3,1.3,0,0,1,.48.6l.24.36.12.12.12.24.48.9.42,1c0,.12.6,1.4,1.67,3.84.36.95.94,2.27,1.74,3.95s1.3,2.75,1.5,3.23q2,4.67,6.34,14.73Q206.8,47.37,211.17,57.49ZM194.76,33.6q2.4,5.51,6.35,14.69L206,59.7q9.58,21.67,11.68,26.17h-2.46Q214,83,210.09,74.16t-6-13.56q-10.53-24.32-11.31-26.17c-.84-1.87-2-4.6-3.62-8.17s-2.53-5.74-2.85-6.5-.82-2-1.49-3.47l-1.32-2.93q-.18-.48-1.38-3.18l-.36-.71a.47.47,0,0,0-.72-.24q-.66,0-.66.48l-.35.83q-2.64,5.94-33.24,75.33h-2.45q1.32-2.82,9.82-22.1,3.53-8.15,11.56-26l3.05-7.13c1.4-3.27,2.49-5.81,3.29-7.6q.42-.9,1.17-2.55c.5-1.09.95-2.09,1.35-3s.75-1.75,1.07-2.55l1-2.21q.6-1.2,1-2.1c.24-.44.6-1.05,1.08-1.85s.82-1.4,1-1.8l.47-.78a.75.75,0,0,1,.78-.6.93.93,0,0,1,1.08.24.7.7,0,0,1,.12.18.7.7,0,0,0,.12.18l.24.54q.06.12.81,1.41c.5.86.89,1.57,1.17,2.12.12.24.28.6.5,1.08s.37.82.45,1,.29.61.51,1.11.39.87.51,1.11l.9,2.09q.6,1.38.9,2.16c.64,1.43,1.69,3.81,3.17,7.12S194,31.84,194.76,33.6Zm-5.14,2.21q7,16,11.37,26.11,4.14,9.45,10.6,24h-2.34q-4.19-9.34-8.5-19.4H161.41q-1.84,4.25-4.76,10.74t-3.8,8.66h-2.33q5.14-11.69,30.17-68.56l.12-.24a.7.7,0,0,0,.12-.18q.06-.12.12-.12a.52.52,0,0,1,.36.18l.12.24.6,1.32c.12.28.31.71.57,1.28l.57,1.29c.8,1.8,1.89,4.33,3.29,7.61S189,34.33,189.62,35.81ZM162.37,64.25h37.42l-.74-1.65c-.34-.73-.59-1.28-.75-1.64H163.87c-.16.36-.41.91-.75,1.64Zm33.47-8.8H166.32l-.74,1.65c-.34.74-.59,1.28-.75,1.64h32.51c-.16-.36-.41-.9-.75-1.64ZM181.17,21.68q-8.56,19.45-14,31.55h27.72q-2.44-5.56-7.18-16.49T181.17,21.68Z"/><path d="M249,46.83,213.89.6h2.69l34.61,45.51V86.46H249Zm5.62-2L220.9.6h2.69l33.23,43.53V86.46H254.6Zm6.59-4.13L291.61.6h2.81L262.33,42.82V86.46h-2.1V43.06L227.84.6h2.88l23.53,30.9L277.66.6h2.69L255.56,33.36l2.22,2.81L284.66.6h2.82L259.16,38Z"/><rect class="cls-1" x="248.26" y="16.68" width="42.89" height="2" transform="translate(92.48 221.75) rotate(-52.78)"/><path class="cls-1" d="M143.37,86.27l-1.83-.81c.35-.78,34.86-78.27,35.74-80.3A3.9,3.9,0,0,1,180.82,3a4.26,4.26,0,0,1,4,2.1c1.16,2.16,34,77.19,35.45,80.38l-1.83.81C206.63,59.24,184,7.7,183.1,6a2.34,2.34,0,0,0-2.2-1,2,2,0,0,0-1.78,1C178.23,8,144.79,83.08,143.37,86.27Z"/><path class="cls-1" d="M5,85.87H3V7c0-2.58,1.39-4,3.9-4H37.31c8,0,28.24,8.61,28.24,28.93,0,20.83-18.89,29.84-28.53,29.84H13.69v-2H37c9,0,26.53-8.41,26.53-27.84C63.55,13.25,44.54,5,37.31,5H6.88C5.68,5,5,5.3,5,7Z"/><path class="cls-1" d="M129.49,82.75H85.43c-3.46,0-4.91-.74-4.91-5.35V.6h2V77.4c0,3.35.39,3.35,2.91,3.35h44.06Z"/><polygon class="cls-1" points="254.55 86.47 252.55 86.47 252.55 46.29 218.59 1.21 220.19 0 254.55 45.62 254.55 86.47"/></g></g></svg>