<svg xmlns="http://www.w3.org/2000/svg" viewBox="0 0 294.42 86.46"><defs><style>.cls-1{fill:none;stroke:#fff;stroke-miterlimit:10;stroke-width:2px;}</style></defs><title>play</title><g id="Layer_2" data-name="Layer 2"><g id="Layer_6" data-name="Layer 6"><path d="M67.9,28.8a28.17,28.17,0,0,1-.84,11.68,30.91,30.91,0,0,1-4.67,9.94,35.52,35.52,0,0,1-15.45,12,38.43,38.43,0,0,1-8.44,2.22l-2,.18-2,.18H13.23V85.86H11.14V11.26a.69.69,0,0,1,.48-.12H33.83A25.33,25.33,0,0,1,49.4,16.77a24,24,0,0,1,5.15,6.16A18.71,18.71,0,0,1,57,30.18a21,21,0,0,1-.6,7.36,18.55,18.55,0,0,1-3,6.35,22.67,22.67,0,0,1-10.54,8.2,25.28,25.28,0,0,1-5.93,1.5,19.92,19.92,0,0,1-2.69.24h-21v3.41h17.9A59.47,59.47,0,0,0,37.36,57,28.72,28.72,0,0,0,44,55.21a24.78,24.78,0,0,0,12-9.34,24.43,24.43,0,0,0,3.65-7.49,22.63,22.63,0,0,0,.6-8.68,22.92,22.92,0,0,0-2.81-8.5,24.22,24.22,0,0,0-6-7A26.28,26.28,0,0,0,34,7.85q-13.23,0-19.76-.12H8.92a1.54,1.54,0,0,1-.48.09A.79.79,0,0,0,8,8q-.24.24-.24.36V85.86H5.63V8.56A4.76,4.76,0,0,1,5.69,8a4.87,4.87,0,0,0,.06-.6,1,1,0,0,1,.12-.6.89.89,0,0,1,.24-.66,1.2,1.2,0,0,1,.72-.3l.53-.06A5,5,0,0,0,8,5.69a5,5,0,0,1,.66-.06H34a29.39,29.39,0,0,1,18.92,6.89,25.91,25.91,0,0,1,6.47,7.6,23.06,23.06,0,0,1,3.17,9.28A25.55,25.55,0,0,1,61.79,39a27.36,27.36,0,0,1-3.95,8.2,29.17,29.17,0,0,1-13,10.06,44.6,44.6,0,0,1-7.07,1.86c-1.6.16-2.75.24-3.47.24a31.18,31.18,0,0,1-3.18.12H13.23v3.29h21.2a18.9,18.9,0,0,0,3.71-.36,33.09,33.09,0,0,0,8-2,31.19,31.19,0,0,0,14.49-11.2A25.64,25.64,0,0,0,65,39.88,29.71,29.71,0,0,0,65.86,29,27.12,27.12,0,0,0,62.27,18.5,29.1,29.1,0,0,0,55,9.94,34.53,34.53,0,0,0,45.21,4.4,35.54,35.54,0,0,0,34.07,2.22H10.66a22.51,22.51,0,0,0-3.95.24,5.15,5.15,0,0,0-1.56.48,6.66,6.66,0,0,0-1.38.83,2.24,2.24,0,0,0-.48.66,2.94,2.94,0,0,1-.18.3,2.94,2.94,0,0,0-.18.3,9.11,9.11,0,0,0-.48,1.62,17,17,0,0,0-.23,3.77V85.86H0V7.49a5.63,5.63,0,0,1,.36-2.1,8.83,8.83,0,0,1,.36-1,.69.69,0,0,0,.12-.27A2.38,2.38,0,0,1,1,3.83a.93.93,0,0,1,.12-.18,2.55,2.55,0,0,0,.48-.71,9.42,9.42,0,0,1,.77-.72A12.29,12.29,0,0,1,3.65,1.08,15.33,15.33,0,0,1,5.51.36,25.63,25.63,0,0,1,10.18.12H34.07A37.43,37.43,0,0,1,46,2.31,33.9,33.9,0,0,1,56.4,8.21a36.73,36.73,0,0,1,7.85,9.22A28.64,28.64,0,0,1,67.9,28.8ZM13.23,13.35V51.73H34.07q.42-.06,1.29-.12c.57,0,1-.08,1.28-.12A23.87,23.87,0,0,0,42,50.06a21.73,21.73,0,0,0,9.58-7.37,18.83,18.83,0,0,0,2.7-5.8,17.66,17.66,0,0,0,.48-6.47,19.36,19.36,0,0,0-2.1-6.53A19.09,19.09,0,0,0,48,18.5a21.28,21.28,0,0,0-14.13-5.15H13.23Z"/><path d="M90.2,83.65h39.57v2.21H84.57a6.65,6.65,0,0,1-2.34-.54,19.34,19.34,0,0,1-1.85-1.07q-.12-.12-.42-.36t-.42-.36q-.12-.18-.36-.48a3,3,0,0,1-.3-.42,10.52,10.52,0,0,1-1-1.92,8.31,8.31,0,0,1-.36-2.63V0h2.1V74.79a11.83,11.83,0,0,1,0,1.55,15.81,15.81,0,0,0,0,1.74,3.89,3.89,0,0,0,.3,1.26,7.69,7.69,0,0,0,.6,1.85,2.79,2.79,0,0,0,.48.72l.39.36c.18.16.3.28.38.36a7.38,7.38,0,0,0,1.68.66,5.63,5.63,0,0,0,2.1.36Zm.36-5.57h39.21v2.21H87.26c-2-.19-3-.31-3.05-.35a.67.67,0,0,1-.66-.36,1.84,1.84,0,0,1-.24-.72,6.77,6.77,0,0,1-.12-1.5,32.72,32.72,0,0,1-.12-3.29V0h2.22V77.24a.69.69,0,0,0,.12.48.54.54,0,0,0,.48.36Zm19.87-5.63h19.34v2.22H88.94q-.24,0-.24-.36V0h2.22V72.45Z"/><path d="M211.17,57.48q7.31,17,12.51,28.38h-2.33q-1.8-3.83-12.1-27.48-1.91-4.43-6.07-13.92t-5.36-12.19q-4.38-10.05-6.35-14.72c-1.2-2.68-2.09-4.73-2.69-6.17q-.24-.54-.75-1.59c-.34-.7-.59-1.23-.75-1.58L187,7.49l-.36-.72a2.53,2.53,0,0,0-.48-.66,2.78,2.78,0,0,0-.36-.6,12.17,12.17,0,0,0-3.11-2.69,2.78,2.78,0,0,0-.6-.36,4,4,0,0,0-1.2-.24,3.38,3.38,0,0,0-1,.36,2.15,2.15,0,0,0-.3.18l-.3.18A14.42,14.42,0,0,0,176.14,6a5,5,0,0,0-.36.66l-.42.72-.71,1.55A33.4,33.4,0,0,1,173.33,12c-.36.8-1,2.3-2,4.52s-1.74,3.92-2.3,5.12q-5.75,13-6.53,14.73c-.6,1.35-2.32,5.28-5.18,11.76s-4.92,11.23-6.19,14.22-2.79,6.27-4.41,9.94l-3.83,8.74c-.94,2.16-1.66,3.76-2.18,4.79h-2.34l2-4.55q1.5-3.34,3.95-9t4.79-10.78q3.36-7.66,11.44-26,1.3-2.82,3.71-8.38c1.59-3.72,2.51-5.83,2.75-6.35q2.1-4.55,4.67-10.66c.68-1.36,1.26-2.63,1.74-3.83l.84-1.8.48-.9c0-.07.08-.19.24-.35l.24-.36.29-.24q0-.12.24-.36l.48-.48.48-.33.48-.33,1-.48L179,.36h.24l.24-.12h.36a2.59,2.59,0,0,1,1.13-.12h1.32a1.65,1.65,0,0,1,.33.09l.39.15a7.55,7.55,0,0,1,3.71,2.1,1.3,1.3,0,0,1,.48.6l.24.36.12.12.12.23.48.9.42,1c0,.12.6,1.4,1.67,3.83.36,1,.94,2.28,1.74,3.95s1.3,2.76,1.5,3.24q2,4.67,6.34,14.73Q206.8,47.36,211.17,57.48ZM194.76,33.59q2.4,5.52,6.35,14.7L206,59.7q9.58,21.67,11.68,26.16h-2.46Q214,83,210.09,74.16t-6-13.56q-10.53-24.32-11.31-26.17-1.26-2.82-3.62-8.17t-2.85-6.5c-.32-.8-.82-2-1.49-3.47l-1.32-2.94c-.12-.31-.58-1.37-1.38-3.17l-.36-.72a.47.47,0,0,0-.72-.24q-.66,0-.66.48l-.35.84q-2.64,5.93-33.24,75.32h-2.45q1.32-2.81,9.82-22.09,3.53-8.15,11.56-26l3.05-7.12c1.4-3.27,2.49-5.81,3.29-7.61.28-.59.67-1.44,1.17-2.54l1.35-3c.4-.9.75-1.75,1.07-2.55l1-2.21q.6-1.2,1-2.1.36-.66,1.08-1.86c.48-.79.82-1.39,1-1.79l.47-.78a.75.75,0,0,1,.78-.6.93.93,0,0,1,1.08.24.7.7,0,0,1,.12.18.7.7,0,0,0,.12.18l.24.54q.06.12.81,1.41c.5.85.89,1.56,1.17,2.12.12.24.28.6.5,1.08s.37.82.45,1,.29.61.51,1.1.39.87.51,1.11q.3.72.9,2.1c.4.92.7,1.63.9,2.15.64,1.44,1.69,3.82,3.17,7.13S194,31.84,194.76,33.59Zm-5.14,2.22q7,16,11.37,26.1,4.14,9.47,10.6,24h-2.34q-4.19-9.33-8.5-19.4H161.41q-1.84,4.26-4.76,10.75t-3.8,8.65h-2.33q5.14-11.67,30.17-68.55l.12-.24a.7.7,0,0,0,.12-.18q.06-.12.12-.12a.52.52,0,0,1,.36.18l.12.24.6,1.31.57,1.29.57,1.29c.8,1.79,1.89,4.33,3.29,7.6S189,34.33,189.62,35.81ZM162.37,64.25h37.42l-.74-1.65L198.3,61H163.87l-.75,1.65Zm33.47-8.8H166.32l-.74,1.64-.75,1.65h32.51l-.75-1.65C196.25,56.36,196,55.81,195.84,55.45ZM181.17,21.68q-8.56,19.45-14,31.55h27.72q-2.44-5.56-7.18-16.49T181.17,21.68Z"/><path d="M249,46.82,213.89.6h2.69l34.61,45.51V86.46H249Zm5.62-2L220.9.6h2.69l33.23,43.53V86.46H254.6Zm6.59-4.13L291.61.6h2.81L262.33,42.81V86.46h-2.1V43.05L227.84.6h2.88l23.53,30.9L277.66.6h2.69L255.56,33.35l2.22,2.82L284.66.6h2.82L259.16,38Z"/><path class="cls-1" d="M219.39,85.86S185.13,7.7,184,5.55s-4.89-2.06-5.78,0-35.74,80.31-35.74,80.31"/><path class="cls-1" d="M4,85.86V7c0-2.61,1.6-3,2.9-3H37.31c7.4,0,27.24,8.21,27.24,27.92S46.88,60.73,37,60.73H13.69"/><path class="cls-1" d="M81.52.6V77.4c0,4.06,1,4.35,3.91,4.35h44.06"/><polyline class="cls-1" points="219.39 0.6 253.55 45.95 253.55 86.46"/></g></g></svg>