<svg xmlns="http://www.w3.org/2000/svg" viewBox="0 0 237.65 110.74"><defs><style>.cls-1{fill:#fff;}</style></defs><title>Stitulo</title><g id="Layer_2" data-name="Layer 2"><g id="Layer_6" data-name="Layer 6"><path d="M21,5.36H8.42L7.22,15H17.38L17,18H6.86l-1.22,10H18.22l-.38,3H1.5L5,2.3h16.3Z"/><path d="M17.84,32.46H1.5A1.46,1.46,0,0,1,.38,32,1.48,1.48,0,0,1,0,30.78L3.55,2.12A1.49,1.49,0,0,1,5,.8h16.3a1.46,1.46,0,0,1,1.12.51,1.48,1.48,0,0,1,.37,1.17l-.38,3.06A1.49,1.49,0,0,1,21,6.86H9.75l-.83,6.66h8.46a1.5,1.5,0,0,1,1.49,1.69l-.38,2.94A1.51,1.51,0,0,1,17,19.46H8.19l-.85,7H18.22a1.46,1.46,0,0,1,1.12.51,1.49,1.49,0,0,1,.37,1.18l-.38,3A1.5,1.5,0,0,1,17.84,32.46Zm-14.64-3,13.32,0H5.64a1.46,1.46,0,0,1-1.12-.51,1.48,1.48,0,0,1-.37-1.17l1.22-10A1.5,1.5,0,0,1,6.8,16.46,1.46,1.46,0,0,1,6.1,16a1.49,1.49,0,0,1-.37-1.18l1.2-9.66A1.49,1.49,0,0,1,8.42,3.86H19.63V3.8H6.37Z"/><path d="M23.6,10.7h2.88a.89.89,0,0,1,.64.22,1,1,0,0,1,.3.52l3,13A12.62,12.62,0,0,1,30.67,26c0,.49.08,1,.11,1.46.15-.48.3-1,.46-1.45a12.89,12.89,0,0,1,.6-1.49l6.28-13a1.51,1.51,0,0,1,.44-.53,1,1,0,0,1,.62-.21H42L31.8,31h-3Z"/><path d="M31.8,32.46h-3a1.5,1.5,0,0,1-1.45-1.13L22.15,11.07A1.49,1.49,0,0,1,23.6,9.2h2.88a2.37,2.37,0,0,1,1.65.61,2.46,2.46,0,0,1,.76,1.34L31.39,22l5.38-11.16a3,3,0,0,1,.89-1.08,2.53,2.53,0,0,1,1.52-.51H42a1.49,1.49,0,0,1,1.34,2.17L33.14,31.63A1.49,1.49,0,0,1,31.8,32.46Zm-1.82-3h.89l.3-.59a1.54,1.54,0,0,1-.57,0,1.51,1.51,0,0,1-.87-.41ZM25.54,12.2l3.67,14.26,0-.36A9.77,9.77,0,0,0,29,24.8L26.06,12.2Zm13.88,0-2.71,5.62,2.82-5.62Zm-12.94,0h0ZM26,11.78v0Z"/><path d="M59.44,15a5.48,5.48,0,0,1-.54,2.43,5,5,0,0,1-2,2A14.89,14.89,0,0,1,53,21a44.1,44.1,0,0,1-6.48,1.06c0,.15,0,.29,0,.43v.43A6.25,6.25,0,0,0,47.63,27a4.33,4.33,0,0,0,3.53,1.41,6.8,6.8,0,0,0,1.71-.2,7.21,7.21,0,0,0,1.34-.49,6.13,6.13,0,0,0,1-.64l.83-.64c.25-.19.49-.36.7-.49a1.23,1.23,0,0,1,.64-.2.86.86,0,0,1,.66.34l.88,1.1A17.83,17.83,0,0,1,57,29a11.54,11.54,0,0,1-2,1.25,8.94,8.94,0,0,1-2.13.73,12,12,0,0,1-2.39.23,7.92,7.92,0,0,1-3.12-.58A6.54,6.54,0,0,1,45,29a7.47,7.47,0,0,1-1.48-2.59A10.37,10.37,0,0,1,43,23a14.87,14.87,0,0,1,.33-3.11,14.55,14.55,0,0,1,1-2.95,13.29,13.29,0,0,1,1.54-2.6,10.46,10.46,0,0,1,2.08-2.07,9.67,9.67,0,0,1,2.58-1.37,9.08,9.08,0,0,1,3-.5,7.34,7.34,0,0,1,2.66.44A5.62,5.62,0,0,1,58,12a4.37,4.37,0,0,1,1.07,1.5A4.06,4.06,0,0,1,59.44,15ZM53.32,13A5.16,5.16,0,0,0,51,13.5a6.18,6.18,0,0,0-1.88,1.43,8.8,8.8,0,0,0-1.4,2.14,12.34,12.34,0,0,0-.9,2.65,37.76,37.76,0,0,0,4.94-.87,12.5,12.5,0,0,0,2.86-1.06,3.06,3.06,0,0,0,1.32-1.23,3.17,3.17,0,0,0,.32-1.38,1.91,1.91,0,0,0-.16-.75,2,2,0,0,0-.51-.71,2.84,2.84,0,0,0-.91-.53A3.89,3.89,0,0,0,53.32,13Z"/><path d="M50.46,32.74a9.35,9.35,0,0,1-3.7-.7,8,8,0,0,1-2.88-2A8.89,8.89,0,0,1,42.1,26.9,11.92,11.92,0,0,1,41.5,23a16.49,16.49,0,0,1,.36-3.42,16.15,16.15,0,0,1,1.06-3.26,15.49,15.49,0,0,1,1.71-2.89A12.09,12.09,0,0,1,47,11.09a11.2,11.2,0,0,1,3-1.58,10.55,10.55,0,0,1,3.53-.59,8.81,8.81,0,0,1,3.21.54,7.42,7.42,0,0,1,2.32,1.43,5.93,5.93,0,0,1,1.42,2A5.53,5.53,0,0,1,60.94,15a7,7,0,0,1-.69,3.09,6.66,6.66,0,0,1-2.54,2.62,16.34,16.34,0,0,1-4.37,1.72,40.24,40.24,0,0,1-5.37,1,4.48,4.48,0,0,0,.81,2.65,2.9,2.9,0,0,0,2.38.87,5.1,5.1,0,0,0,1.32-.15,6.32,6.32,0,0,0,1.07-.39,4.13,4.13,0,0,0,.78-.47l.84-.65a7.74,7.74,0,0,1,.82-.57,2.6,2.6,0,0,1,1.43-.43,2.32,2.32,0,0,1,1.78.85l.93,1.15a1.51,1.51,0,0,1-.09,2,20.89,20.89,0,0,1-2.15,2,13.55,13.55,0,0,1-2.25,1.41,10.93,10.93,0,0,1-2.49.85A13.49,13.49,0,0,1,50.46,32.74ZM46.87,15.47a11.55,11.55,0,0,0-1.21,2.11,12.36,12.36,0,0,0-.86,2.64,13.33,13.33,0,0,0-.3,2.8,9,9,0,0,0,.44,2.91A5.86,5.86,0,0,0,46.12,28a5,5,0,0,0,1.8,1.27,7.39,7.39,0,0,0,.71.24A5.12,5.12,0,0,1,46.48,28a7.69,7.69,0,0,1-1.52-5v-.43q0-.27,0-.57a1.5,1.5,0,0,1,.76-1.17s0,0,0,0a1.49,1.49,0,0,1-.35-1.34,14.12,14.12,0,0,1,1-3Q46.6,15.94,46.87,15.47Zm6.45-1a3.65,3.65,0,0,0-1.66.37,4.78,4.78,0,0,0-1.43,1.08,7.37,7.37,0,0,0-1.15,1.78l-.09.18c.93-.15,1.73-.32,2.39-.49a11.21,11.21,0,0,0,2.5-.91c.58-.33.7-.56.71-.59a1.65,1.65,0,0,0,.17-.72.6.6,0,0,0,0-.18.45.45,0,0,0-.13-.17,1.24,1.24,0,0,0-.43-.24A2.47,2.47,0,0,0,53.32,14.48Zm3.81-1.27a3.72,3.72,0,0,1,.36.65,3.46,3.46,0,0,1,.27,1.32,4.61,4.61,0,0,1-.47,2v0a1.88,1.88,0,0,0,.27-.42A4,4,0,0,0,57.94,15a2.56,2.56,0,0,0-.23-1A2.78,2.78,0,0,0,57.13,13.21Z"/><path d="M62.88,31l2.44-20.28H67.1a1.38,1.38,0,0,1,.88.26,1,1,0,0,1,.32.8,2.2,2.2,0,0,1,0,.23c0,.1,0,.2,0,.31s0,.2,0,.28a1.13,1.13,0,0,0,0,.14L68,16.38a14,14,0,0,1,2.91-4.32,4.91,4.91,0,0,1,3.39-1.52,4.24,4.24,0,0,1,1.68.36l-.64,3.42a4.91,4.91,0,0,0-1.82-.38A4.39,4.39,0,0,0,70,15.83a15.71,15.71,0,0,0-2.54,5.73L66.36,31Z"/><path d="M66.36,32.46H62.88a1.49,1.49,0,0,1-1.12-.5,1.51,1.51,0,0,1-.37-1.18L63.83,10.5a1.5,1.5,0,0,1,1.49-1.32H67.1a2.8,2.8,0,0,1,1.83.6,2.35,2.35,0,0,1,.8,1.3l.11-.11a6,6,0,0,1,6.69-1.45,1.5,1.5,0,0,1,.88,1.66l-.64,3.42a1.49,1.49,0,0,1-2,1.11,2.77,2.77,0,0,0-3.55,1.06A13.9,13.9,0,0,0,69,21.84l-1.11,9.3A1.5,1.5,0,0,1,66.36,32.46Zm-1.79-3H65l1-8.08a1.55,1.55,0,0,1,0-.21,25.8,25.8,0,0,1,1.18-3.49,1.51,1.51,0,0,1-.75-1.41l.28-3.68a.71.71,0,0,0,0-.16l0-.25h-.12ZM74.2,12a2.85,2.85,0,0,0-1.44.45,5.15,5.15,0,0,1,1.36,0Z"/><path d="M83,37a1.32,1.32,0,0,1-1.24.82h-2.6l4.38-8.06L78.32,10.7h2.94a.86.86,0,0,1,.63.21,1.1,1.1,0,0,1,.29.53L85.44,24.2a8.28,8.28,0,0,1,.16.84c0,.28.07.56.1.84.12-.28.24-.56.35-.85a7.2,7.2,0,0,1,.39-.85l6.4-12.78a1.39,1.39,0,0,1,.45-.51,1,1,0,0,1,.59-.19H96.7Z"/><path d="M81.78,39.32h-2.6a1.5,1.5,0,0,1-1.32-2.22L82,29.57,76.87,11.1a1.51,1.51,0,0,1,1.45-1.9h2.94A2.3,2.3,0,0,1,83,9.85a2.55,2.55,0,0,1,.69,1.23l2.59,10.16L91.5,10.73a2.78,2.78,0,0,1,1-1.1,2.59,2.59,0,0,1,1.41-.43H96.7A1.49,1.49,0,0,1,98,9.92a1.51,1.51,0,0,1,0,1.47L84.35,37.69A2.8,2.8,0,0,1,81.78,39.32ZM80.29,12.2,85,29.36a1.51,1.51,0,0,1,0,.47l1.37-2.64a1.44,1.44,0,0,1-1,.17A1.48,1.48,0,0,1,84.21,26c0-.26-.06-.52-.1-.78a5.73,5.73,0,0,0-.13-.7L80.83,12.2Zm13.83,0L91.21,18l3-5.8Zm-13.39-.39Z"/><path d="M100.12,27.14c0-.08,0-.18,0-.31s0-.31,0-.55,0-.55.09-.94.1-.89.18-1.52l1.26-10.14H99.44a.63.63,0,0,1-.43-.15.61.61,0,0,1-.17-.47s0-.12,0-.24,0-.26,0-.41l.06-.47c0-.16,0-.31,0-.46l3.12-.42,1.5-6.26a.93.93,0,0,1,.3-.49.79.79,0,0,1,.54-.19h1.88l-.88,7h5.32l-.3,2.58h-5.34l-1.22,10q-.1.83-.15,1.32c0,.33-.06.6-.08.8s0,.34,0,.42a1.36,1.36,0,0,0,0,.18,2.13,2.13,0,0,0,.47,1.51,1.68,1.68,0,0,0,1.29.49,2.61,2.61,0,0,0,.92-.15,3.71,3.71,0,0,0,.69-.33c.19-.12.36-.23.49-.33a.61.61,0,0,1,.36-.15.37.37,0,0,1,.25.08,1,1,0,0,1,.19.26l.74,1.7a7.41,7.41,0,0,1-2.21,1.35,6.75,6.75,0,0,1-2.51.49,4.27,4.27,0,0,1-3.06-1.06A4.16,4.16,0,0,1,100.12,27.14Z"/><path d="M104.34,32.78a5.72,5.72,0,0,1-4.09-1.47,5.57,5.57,0,0,1-1.63-4.14v0c0-.1,0-.24,0-.4s0-.32,0-.58.06-.58.1-1,.1-.92.18-1.56l1-8.45h-.56a2,2,0,0,1-2.1-2.12c0-.07,0-.21,0-.41l.11-.9c0-.14,0-.28,0-.41A1.51,1.51,0,0,1,98.82,10l2.1-.28,1.26-5.26A2.45,2.45,0,0,1,103,3.18a2.25,2.25,0,0,1,1.52-.56h1.88a1.51,1.51,0,0,1,1.49,1.69l-.67,5.29h3.62a1.5,1.5,0,0,1,1.12.5,1.52,1.52,0,0,1,.37,1.17l-.3,2.58a1.5,1.5,0,0,1-1.49,1.33h-4l-1.06,8.64c-.07.54-.12,1-.15,1.29l-.12,1.2a1.24,1.24,0,0,0,.07.54s.06,0,.19,0a1.28,1.28,0,0,0,.39-.05c.22-.09.35-.16.43-.2s.28-.18.38-.26a2.07,2.07,0,0,1,1.26-.45,1.86,1.86,0,0,1,1.25.46,2.47,2.47,0,0,1,.5.65l.06.13.74,1.7a1.5,1.5,0,0,1-.37,1.72,8.82,8.82,0,0,1-2.66,1.63A8.48,8.48,0,0,1,104.34,32.78Zm-2.72-5.65a2.73,2.73,0,0,0,.69,2,3,3,0,0,0,2.29.64,3,3,0,0,1-1.55-.86,3.55,3.55,0,0,1-.89-2.55c0-.07,0-.17,0-.31l.13-1.24q0-.51.15-1.35l1.22-10a1.49,1.49,0,0,1,.91-1.2,1.51,1.51,0,0,1-.23-.21,1.52,1.52,0,0,1-.36-1.18l.31-2.41-.7,2.91a1.52,1.52,0,0,1-1,1.08,1,1,0,0,1,.21.2,1.49,1.49,0,0,1,.37,1.18L101.93,24c-.08.62-.14,1.12-.18,1.49s-.07.68-.09.92,0,.38,0,.49A2.11,2.11,0,0,0,101.62,27.13Z"/><path d="M113.42,31,117,1.5h3.56l-1.66,13.68a12,12,0,0,1,3.51-3.57,7.32,7.32,0,0,1,4-1.21,4.33,4.33,0,0,1,3.54,1.52,6.83,6.83,0,0,1,1.24,4.42c0,.27,0,.54,0,.83s0,.58-.08.89L129.5,31h-3.56l1.52-12.9c0-.27.05-.52.07-.77s0-.48,0-.71a4,4,0,0,0-.61-2.44,2.29,2.29,0,0,0-1.93-.8,4,4,0,0,0-1.85.49,7.66,7.66,0,0,0-1.85,1.39,11.63,11.63,0,0,0-1.68,2.17,16.5,16.5,0,0,0-1.36,2.83L117,31Z"/><path d="M129.5,32.46h-3.56a1.5,1.5,0,0,1-1.49-1.68L126,17.88c0-.22,0-.47.06-.71s0-.4,0-.59a2.63,2.63,0,0,0-.3-1.53,1,1,0,0,0-.74-.21,2.58,2.58,0,0,0-1.16.32,6.28,6.28,0,0,0-1.48,1.12,9.89,9.89,0,0,0-1.46,1.9,13.73,13.73,0,0,0-1.17,2.4l-1.28,10.56A1.5,1.5,0,0,1,117,32.46h-3.56a1.49,1.49,0,0,1-1.12-.5,1.51,1.51,0,0,1-.37-1.18l3.56-29.46A1.5,1.5,0,0,1,117,0h3.56a1.46,1.46,0,0,1,1.12.51A1.47,1.47,0,0,1,122,1.68l-1.11,9.12c.22-.17.45-.32.67-.46a8.84,8.84,0,0,1,4.75-1.44A5.76,5.76,0,0,1,131,11a8.3,8.3,0,0,1,1.58,5.37c0,.29,0,.59,0,.9s0,.67-.09,1L131,31.14A1.5,1.5,0,0,1,129.5,32.46Zm-1.87-3h.54l1.36-11.58a7.51,7.51,0,0,0,.07-.78c0-.26,0-.51,0-.76a5.46,5.46,0,0,0-.9-3.47,2.76,2.76,0,0,0-2.38-1l-.42,0a3.49,3.49,0,0,1,2.22,1.31,5.34,5.34,0,0,1,.92,3.35,7.94,7.94,0,0,1,0,.83c0,.25,0,.52-.07.8Zm-12.52,0h.54L116.79,20a1.3,1.3,0,0,1,.08-.34,17.36,17.36,0,0,1,1.49-3.09v0h0a1.51,1.51,0,0,1-1-1.59l1.46-12h-.54Z"/><path d="M142.08,10.7,139.64,31h-3.5l2.44-20.26Zm1.34-6.36a2.25,2.25,0,0,1-.21,1,2.81,2.81,0,0,1-.56.8,2.68,2.68,0,0,1-.79.55,2.24,2.24,0,0,1-.92.2,2.18,2.18,0,0,1-.9-.2,2.47,2.47,0,0,1-.77-.55,2.72,2.72,0,0,1-.53-.8,2.4,2.4,0,0,1-.2-1,2.57,2.57,0,0,1,.74-1.79,2.86,2.86,0,0,1,.78-.56,2,2,0,0,1,.9-.21,2.24,2.24,0,0,1,.92.2,2.68,2.68,0,0,1,.79.55,2.57,2.57,0,0,1,.55.82A2.54,2.54,0,0,1,143.42,4.34Z"/><path d="M139.64,32.46h-3.5A1.49,1.49,0,0,1,135,32a1.51,1.51,0,0,1-.37-1.18l2.44-20.26a1.5,1.5,0,0,1,1.49-1.32h3.5a1.51,1.51,0,0,1,1.49,1.68l-2.44,20.26A1.5,1.5,0,0,1,139.64,32.46Zm-1.81-3h.48l2.08-17.26h-.48Zm3.11-21.1A3.65,3.65,0,0,1,139.42,8a4.08,4.08,0,0,1-1.24-.89,4.19,4.19,0,0,1-.81-1.22A3.82,3.82,0,0,1,137,4.34a4.06,4.06,0,0,1,.32-1.58,4.48,4.48,0,0,1,.84-1.26,4.11,4.11,0,0,1,1.21-.86,3.63,3.63,0,0,1,3.09,0,4.34,4.34,0,0,1,1.23.86,4,4,0,0,1,.87,1.3,4,4,0,0,1,.32,1.57A3.82,3.82,0,0,1,144.57,6a4.29,4.29,0,0,1-.86,1.22,4.2,4.2,0,0,1-1.23.86A3.74,3.74,0,0,1,140.94,8.36Zm0-5.08a.69.69,0,0,0-.26.06,1.45,1.45,0,0,0-.35.26,1.33,1.33,0,0,0-.24.36,1,1,0,0,0-.07.38.83.83,0,0,0,.07.36,1.25,1.25,0,0,0,.25.38.9.9,0,0,0,.3.21.63.63,0,0,0,.58,0,1,1,0,0,0,.35-.24,1.37,1.37,0,0,0,.26-.37.77.77,0,0,0,.07-.34,1.06,1.06,0,0,0-.08-.4,1.25,1.25,0,0,0-.23-.35,1,1,0,0,0-.35-.24A.66.66,0,0,0,141,3.28Z"/><path d="M146.6,31,149,10.68h1.78a1.06,1.06,0,0,1,1.2,1.2l-.3,3.92a12.49,12.49,0,0,1,3.65-4,7.44,7.44,0,0,1,4.21-1.36,4.3,4.3,0,0,1,3.51,1.52,6.85,6.85,0,0,1,1.25,4.44c0,.27,0,.54,0,.82s0,.57-.08.88L162.7,31h-3.56l1.52-12.9c0-.27.05-.52.07-.77s0-.48,0-.71a4,4,0,0,0-.61-2.43,2.25,2.25,0,0,0-1.91-.79,4.13,4.13,0,0,0-2,.52,7.71,7.71,0,0,0-1.91,1.47,11.76,11.76,0,0,0-1.71,2.3,15.67,15.67,0,0,0-1.35,3L150.16,31Z"/><path d="M162.7,32.46h-3.56a1.5,1.5,0,0,1-1.49-1.68l1.52-12.9.06-.71c0-.21,0-.4,0-.59a2.51,2.51,0,0,0-.3-1.51c-.22-.29-1.11-.32-2,.14a6,6,0,0,0-1.53,1.18,11,11,0,0,0-1.5,2A14.59,14.59,0,0,0,152.79,21l-1.14,10.14a1.5,1.5,0,0,1-1.49,1.33H146.6a1.5,1.5,0,0,1-1.49-1.68l2.42-20.28A1.5,1.5,0,0,1,149,9.18h1.78a2.49,2.49,0,0,1,2.65,2.14c.35-.29.7-.56,1.06-.81a9,9,0,0,1,5.05-1.61A5.81,5.81,0,0,1,164.23,11a8.32,8.32,0,0,1,1.59,5.39c0,.29,0,.58,0,.89s-.05.66-.09,1l-1.52,12.89A1.5,1.5,0,0,1,162.7,32.46Zm-1.87-3h.53l1.37-11.58a7.58,7.58,0,0,0,.07-.77c0-.26,0-.51,0-.75a5.52,5.52,0,0,0-.91-3.49,2.82,2.82,0,0,0-2.35-1l-.51,0a3.56,3.56,0,0,1,2.28,1.31,5.28,5.28,0,0,1,.93,3.35,7.94,7.94,0,0,1,0,.83c0,.26,0,.52-.07.8Zm-12.54,0h.53l1-9a1.16,1.16,0,0,1,.07-.31,17.85,17.85,0,0,1,1.29-3,1.51,1.51,0,0,1-1-1.52l.27-3.51h-.12Z"/><path d="M183.74,16.32a7.45,7.45,0,0,1-.25,1.8,9.9,9.9,0,0,1-.57,1.48,14.29,14.29,0,0,1-.74,1.28c-.27.4-.52.8-.74,1.2a7.58,7.58,0,0,0-.57,1.23,3.83,3.83,0,0,0-.23,1.37,2.82,2.82,0,0,0,.41,1.52c.27.45.57.92.9,1.4a13.74,13.74,0,0,1,.9,1.57,4.65,4.65,0,0,1,.41,2,5.75,5.75,0,0,1-.66,2.69,7,7,0,0,1-1.88,2.25,9.49,9.49,0,0,1-3,1.55,12.68,12.68,0,0,1-3.93.57,13,13,0,0,1-3.17-.36,7.9,7.9,0,0,1-2.44-1,4.73,4.73,0,0,1-1.56-1.59,3.91,3.91,0,0,1-.55-2.05,4.52,4.52,0,0,1,.82-2.72,6.29,6.29,0,0,1,2.16-1.88,10.67,10.67,0,0,1,3-1.08,17.58,17.58,0,0,1,3.49-.34c.48,0,.95,0,1.43.06s.94.09,1.41.16a4.4,4.4,0,0,1-.29-.79,3.15,3.15,0,0,1-.11-.89,4.51,4.51,0,0,1,.19-1.28,7,7,0,0,1,.63-1.48,6.18,6.18,0,0,1-1.7.8,7.4,7.4,0,0,1-2.14.28,6.15,6.15,0,0,1-2.17-.38,5,5,0,0,1-1.77-1.12,5.11,5.11,0,0,1-1.2-1.85,6.86,6.86,0,0,1-.44-2.59,7.76,7.76,0,0,1,.53-2.83,7.45,7.45,0,0,1,4.07-4.23,8.51,8.51,0,0,1,3.46-.66,7,7,0,0,1,3.82,1h5.5l-.16,1.18a1.5,1.5,0,0,1-.23.62.81.81,0,0,1-.57.34l-2.52.44a7.56,7.56,0,0,1,.28,1.09A7.69,7.69,0,0,1,183.74,16.32ZM180,31.46a4.9,4.9,0,0,0-.1-1,7,7,0,0,0-.26-.85c-.72-.12-1.4-.21-2-.26s-1.23-.08-1.79-.08a12.35,12.35,0,0,0-2.84.29,6.76,6.76,0,0,0-2,.77,3.36,3.36,0,0,0-1.16,1.11,2.55,2.55,0,0,0,.83,3.51,6.41,6.41,0,0,0,3.43.76,8,8,0,0,0,2.41-.35,6.23,6.23,0,0,0,1.86-.93,4.41,4.41,0,0,0,1.2-1.36A3.43,3.43,0,0,0,180,31.46Zm-4-9.64a3.8,3.8,0,0,0,1.9-.47,4.57,4.57,0,0,0,1.39-1.24,5.74,5.74,0,0,0,.87-1.73,6.49,6.49,0,0,0,.3-1.94,3.65,3.65,0,0,0-.89-2.66,3.3,3.3,0,0,0-2.45-.9,4,4,0,0,0-1.9.44,4.14,4.14,0,0,0-1.38,1.18,5.12,5.12,0,0,0-.85,1.68,6.42,6.42,0,0,0-.29,2,3.9,3.9,0,0,0,.87,2.74A3.14,3.14,0,0,0,176,21.82Z"/><path d="M173.82,39.74a14.51,14.51,0,0,1-3.54-.41,9.25,9.25,0,0,1-2.89-1.21,6.32,6.32,0,0,1-2-2.09,5.36,5.36,0,0,1-.76-2.81,6,6,0,0,1,1.1-3.6,8,8,0,0,1,2.65-2.31,11.83,11.83,0,0,1,3.49-1.24,19.58,19.58,0,0,1,4.72-.35,2.44,2.44,0,0,1,0-.27,8.72,8.72,0,0,1-4.23-.37,6.68,6.68,0,0,1-2.29-1.44,6.82,6.82,0,0,1-1.55-2.38,8.54,8.54,0,0,1-.54-3.14,9.31,9.31,0,0,1,.63-3.36,8.9,8.9,0,0,1,1.85-3,9,9,0,0,1,3-2.1,10,10,0,0,1,4.07-.79,8.53,8.53,0,0,1,4.23,1h5.09a1.53,1.53,0,0,1,1.13.51,1.51,1.51,0,0,1,.35,1.19l-.16,1.18a2.85,2.85,0,0,1-.47,1.26,2.3,2.3,0,0,1-1.58,1l-.94.17a7.78,7.78,0,0,1,.07,1.09v0a8.62,8.62,0,0,1-.31,2.18,10.49,10.49,0,0,1-.67,1.74,12.58,12.58,0,0,1-.83,1.44q-.37.55-.69,1.11a6.89,6.89,0,0,0-.46,1,2.39,2.39,0,0,0-.14.86,1.42,1.42,0,0,0,.19.75c.26.43.55.87.86,1.33a14.75,14.75,0,0,1,1,1.76,6.08,6.08,0,0,1,.56,2.66,7.25,7.25,0,0,1-.83,3.38,8.53,8.53,0,0,1-2.27,2.73,11.07,11.07,0,0,1-3.45,1.81A14.41,14.41,0,0,1,173.82,39.74Zm-5.46-8.66a3.3,3.3,0,0,0-.22.3,3,3,0,0,0-.54,1.84,2.46,2.46,0,0,0,.34,1.29A3.33,3.33,0,0,0,169,35.6l.14.1A3.94,3.94,0,0,1,168,32.78,4,4,0,0,1,168.36,31.08Zm7.48-.28a10.5,10.5,0,0,0-2.49.25,5.29,5.29,0,0,0-1.55.59,2,2,0,0,0-.66.6,1,1,0,0,0-.16.54.94.94,0,0,0,.5.93,5.19,5.19,0,0,0,2.64.53,6.25,6.25,0,0,0,1.95-.28,4.53,4.53,0,0,0,1.41-.7,2.72,2.72,0,0,0,.79-.88,1.82,1.82,0,0,0,.25-.92,2.45,2.45,0,0,0,0-.48l-1-.11C176.91,30.83,176.35,30.8,175.84,30.8Zm3.93-2.66.13,0a1.51,1.51,0,0,1,1.15.92,6.17,6.17,0,0,1,.33,1.08,6.09,6.09,0,0,1,.14,1.3,4.76,4.76,0,0,1-.51,2.15c.09-.14.18-.28.26-.43a4.25,4.25,0,0,0,.49-2,3.2,3.2,0,0,0-.26-1.36,11.33,11.33,0,0,0-.79-1.38c-.27-.39-.52-.78-.76-1.16A1.43,1.43,0,0,1,179.77,28.14Zm0-6.34.05.05.11-.21Zm-7.75-7.26a6.25,6.25,0,0,0-.67,1.28,6.41,6.41,0,0,0-.43,2.3,5.63,5.63,0,0,0,.33,2,3.81,3.81,0,0,0,.85,1.32l0,0a5.64,5.64,0,0,1-.94-3.36,8.29,8.29,0,0,1,.35-2.4A7.94,7.94,0,0,1,172.06,14.54Zm5.08-.16a2.52,2.52,0,0,0-1.19.26,2.66,2.66,0,0,0-.9.77,3.73,3.73,0,0,0-.61,1.21,5.08,5.08,0,0,0-.22,1.52,2.55,2.55,0,0,0,.47,1.72,1.62,1.62,0,0,0,1.33.46,2.28,2.28,0,0,0,1.15-.27,3,3,0,0,0,.93-.83,4.35,4.35,0,0,0,.65-1.29,5.09,5.09,0,0,0,.23-1.49,2.29,2.29,0,0,0-.46-1.61A1.76,1.76,0,0,0,177.14,14.38Zm3.6-1.56A5.13,5.13,0,0,1,182,16.44a8.16,8.16,0,0,1-.37,2.39l0,.1a7.69,7.69,0,0,0,.47-1.23,5.71,5.71,0,0,0,.19-1.4,5.55,5.55,0,0,0-.08-.93,5.69,5.69,0,0,0-.22-.86,1.52,1.52,0,0,1,.12-1.25,1.35,1.35,0,0,1,.26-.32h-1A1.53,1.53,0,0,1,180.74,12.82Zm3,3.5h0Z"/><path d="M115.23,65.24a7.91,7.91,0,0,1-3-.57A6.67,6.67,0,0,1,109.82,63a7.52,7.52,0,0,1-1.56-2.64,10.35,10.35,0,0,1-.57-3.56A14.18,14.18,0,0,1,108.5,52a12.88,12.88,0,0,1,2.19-4A10.3,10.3,0,0,1,114,45.36a8.78,8.78,0,0,1,4.09-1,7.91,7.91,0,0,1,3,.57,6.71,6.71,0,0,1,2.38,1.65A7.6,7.6,0,0,1,125,49.25a10.37,10.37,0,0,1,.57,3.55,14.39,14.39,0,0,1-.8,4.8,13.31,13.31,0,0,1-2.19,4,10.62,10.62,0,0,1-3.29,2.69A8.73,8.73,0,0,1,115.23,65.24Zm.33-2.78a4.73,4.73,0,0,0,2.66-.8,7.06,7.06,0,0,0,2-2.13,11.09,11.09,0,0,0,1.3-3.07,14.46,14.46,0,0,0,.46-3.64,6.84,6.84,0,0,0-1.1-4.22,3.8,3.8,0,0,0-3.19-1.42,4.67,4.67,0,0,0-2.66.79,7,7,0,0,0-2,2.12,11.4,11.4,0,0,0-1.3,3.07,14.46,14.46,0,0,0-.45,3.64A6.94,6.94,0,0,0,112.36,61,3.78,3.78,0,0,0,115.56,62.46Z"/><path d="M115.23,66.74a9.51,9.51,0,0,1-3.61-.68,8.29,8.29,0,0,1-2.91-2,9.25,9.25,0,0,1-1.87-3.15,12.07,12.07,0,0,1-.65-4.07,15.84,15.84,0,0,1,.89-5.32,14.74,14.74,0,0,1,2.44-4.41A11.88,11.88,0,0,1,113.28,44a10.28,10.28,0,0,1,4.78-1.15,9.47,9.47,0,0,1,3.61.68,8.2,8.2,0,0,1,2.91,2,9.15,9.15,0,0,1,1.87,3.17,12,12,0,0,1,.65,4,15.77,15.77,0,0,1-.89,5.3,14.61,14.61,0,0,1-2.44,4.41A12,12,0,0,1,120,65.58,10.23,10.23,0,0,1,115.23,66.74ZM112.57,48.2a9,9,0,0,0-.72.79,11.47,11.47,0,0,0-1.94,3.51,13,13,0,0,0-.72,4.32,8.88,8.88,0,0,0,.48,3A6,6,0,0,0,110.92,62a5.11,5.11,0,0,0,1.67,1.21,5.12,5.12,0,0,1-1.42-1.27,8.25,8.25,0,0,1-1.39-5.14,16.1,16.1,0,0,1,.5-4,12.67,12.67,0,0,1,1.49-3.49A8.73,8.73,0,0,1,112.57,48.2Zm8-1.86a5.15,5.15,0,0,1,1.57,1.34,8.25,8.25,0,0,1,1.42,5.14,16.1,16.1,0,0,1-.51,4,12.54,12.54,0,0,1-1.49,3.49,8.55,8.55,0,0,1-.7,1,8,8,0,0,0,.62-.69,11.35,11.35,0,0,0,1.94-3.51,12.73,12.73,0,0,0,.72-4.3,9,9,0,0,0-.48-3,6.17,6.17,0,0,0-1.24-2.13A5.3,5.3,0,0,0,120.53,46.34Zm-2.8,2.34a3.26,3.26,0,0,0-1.84.54,5.66,5.66,0,0,0-1.59,1.67,9.65,9.65,0,0,0-1.11,2.65,12.45,12.45,0,0,0-.41,3.26,5.56,5.56,0,0,0,.78,3.32,2.24,2.24,0,0,0,2,.84,3.17,3.17,0,0,0,1.82-.55A5.52,5.52,0,0,0,119,58.73a9.84,9.84,0,0,0,1.12-2.65,12.88,12.88,0,0,0,.41-3.26,5.55,5.55,0,0,0-.79-3.3A2.27,2.27,0,0,0,117.73,48.68Z"/><path d="M129.32,65l2.44-20.28h1.77a1.36,1.36,0,0,1,.88.26,1,1,0,0,1,.32.8V46l0,.31c0,.11,0,.2,0,.28a1.13,1.13,0,0,0,0,.14l-.28,3.68a13.67,13.67,0,0,1,2.91-4.32,4.9,4.9,0,0,1,3.38-1.52,4.16,4.16,0,0,1,1.68.36l-.64,3.42a4.87,4.87,0,0,0-1.82-.38,4.41,4.41,0,0,0-3.46,1.89,15.88,15.88,0,0,0-2.54,5.73L132.8,65Z"/><path d="M132.8,66.46h-3.48a1.52,1.52,0,0,1-1.13-.5,1.5,1.5,0,0,1-.36-1.18l2.44-20.28a1.5,1.5,0,0,1,1.49-1.32h1.77a2.78,2.78,0,0,1,1.83.6,2.29,2.29,0,0,1,.8,1.3l.12-.11A6,6,0,0,1,143,43.52a1.51,1.51,0,0,1,.88,1.66l-.64,3.42a1.51,1.51,0,0,1-.75,1,1.53,1.53,0,0,1-1.29.07,2.77,2.77,0,0,0-3.55,1.06,14.25,14.25,0,0,0-2.23,5.07l-1.11,9.3A1.49,1.49,0,0,1,132.8,66.46Zm-1.79-3h.45l1-8.08a1.52,1.52,0,0,1,0-.21,25.74,25.74,0,0,1,1.19-3.49,1.49,1.49,0,0,1-.75-1.41l.28-3.68s0-.09,0-.16l0-.25h-.12ZM140.64,46a2.89,2.89,0,0,0-1.45.45,5.15,5.15,0,0,1,1.36,0Z"/><path d="M88,73.42a1.35,1.35,0,0,1,.47.52l12.36,21.9c0-.31,0-.6.08-.87s.05-.54.08-.79l2.56-20.88h3.3L103.3,102h-1.88a1.69,1.69,0,0,1-.76-.15,1.21,1.21,0,0,1-.52-.55L87.8,79.34c0,.07,0,.16,0,.28l0,.38c0,.13,0,.27,0,.41s0,.26,0,.35L85.08,102h-3.3L85.32,73.3h1.92A1.69,1.69,0,0,1,88,73.42Z"/><path d="M103.3,103.46h-1.88a3.15,3.15,0,0,1-1.44-.31A2.78,2.78,0,0,1,98.82,102l-10-17.85-2.2,18a1.52,1.52,0,0,1-1.49,1.32h-3.3a1.5,1.5,0,0,1-1.13-.51,1.51,1.51,0,0,1-.36-1.17l3.54-28.66a1.49,1.49,0,0,1,1.49-1.32h1.92a3,3,0,0,1,1.42.29,2.69,2.69,0,0,1,1.06,1.08l10.11,17.9L102,73.12a1.5,1.5,0,0,1,1.49-1.32h3.3a1.5,1.5,0,0,1,1.48,1.68l-3.51,28.66A1.51,1.51,0,0,1,103.3,103.46Zm-1.89-3H102l3.15-25.66h-.28l-2.47,20.31c0,.28-.05.56-.08.86a1.5,1.5,0,0,1-2.8.61L87.2,74.8h-.56l-3.17,25.66h.28l2.44-19.88,0-.32,0-.41,0-.32c0-.07,0-.14,0-.19a1.5,1.5,0,0,1,2.8-.74Zm-14-25.65h0Z"/><path d="M117.5,102.24a7.88,7.88,0,0,1-3-.57,6.62,6.62,0,0,1-2.38-1.65,7.52,7.52,0,0,1-1.56-2.64,10.35,10.35,0,0,1-.56-3.56,14.17,14.17,0,0,1,.8-4.82A12.88,12.88,0,0,1,113,85a10.3,10.3,0,0,1,3.28-2.68,8.78,8.78,0,0,1,4.09-1,7.91,7.91,0,0,1,3,.57,6.71,6.71,0,0,1,2.38,1.65,7.78,7.78,0,0,1,1.56,2.65,10.62,10.62,0,0,1,.56,3.55,14.39,14.39,0,0,1-.8,4.8,13.31,13.31,0,0,1-2.19,4,10.62,10.62,0,0,1-3.29,2.69A8.72,8.72,0,0,1,117.5,102.24Zm.32-2.78a4.73,4.73,0,0,0,2.66-.8,6.94,6.94,0,0,0,2-2.13,11.09,11.09,0,0,0,1.3-3.07,14.46,14.46,0,0,0,.46-3.64,6.84,6.84,0,0,0-1.1-4.22A3.79,3.79,0,0,0,120,84.18a4.68,4.68,0,0,0-2.67.79,6.88,6.88,0,0,0-2,2.12,10.8,10.8,0,0,0-1.3,3.07,14,14,0,0,0-.46,3.64A6.87,6.87,0,0,0,114.63,98,3.76,3.76,0,0,0,117.82,99.46Z"/><path d="M117.5,103.74a9.52,9.52,0,0,1-3.62-.68,8.16,8.16,0,0,1-2.9-2,9.11,9.11,0,0,1-1.88-3.15,12.07,12.07,0,0,1-.64-4.07,15.84,15.84,0,0,1,.88-5.32,14.74,14.74,0,0,1,2.44-4.41A11.88,11.88,0,0,1,115.54,81a10.28,10.28,0,0,1,4.78-1.15,9.47,9.47,0,0,1,3.61.68,8.2,8.2,0,0,1,2.91,2,9.15,9.15,0,0,1,1.87,3.17,12,12,0,0,1,.65,4,15.77,15.77,0,0,1-.89,5.3A14.61,14.61,0,0,1,126,99.51a11.94,11.94,0,0,1-3.76,3.07A10.22,10.22,0,0,1,117.5,103.74ZM114.83,85.2c-.25.25-.49.51-.72.79a11.47,11.47,0,0,0-1.94,3.51,13,13,0,0,0-.71,4.32,8.89,8.89,0,0,0,.47,3.05A6,6,0,0,0,113.18,99a5.11,5.11,0,0,0,1.67,1.21,5.12,5.12,0,0,1-1.42-1.27A8.25,8.25,0,0,1,112,93.8a15.65,15.65,0,0,1,.51-4A12.36,12.36,0,0,1,114,86.29,8.73,8.73,0,0,1,114.83,85.2Zm8-1.86a5.15,5.15,0,0,1,1.57,1.34,8.25,8.25,0,0,1,1.42,5.14,16.1,16.1,0,0,1-.51,4,12.54,12.54,0,0,1-1.49,3.49,9.92,9.92,0,0,1-.69,1c.21-.22.42-.45.61-.69a11.35,11.35,0,0,0,1.94-3.51,12.73,12.73,0,0,0,.72-4.3,9,9,0,0,0-.48-3,6.17,6.17,0,0,0-1.24-2.13A5.3,5.3,0,0,0,122.79,83.34ZM120,85.68a3.21,3.21,0,0,0-1.84.54,5.57,5.57,0,0,0-1.6,1.67,9.65,9.65,0,0,0-1.11,2.65A12.45,12.45,0,0,0,115,93.8a5.56,5.56,0,0,0,.78,3.32,2.24,2.24,0,0,0,2,.84,3.17,3.17,0,0,0,1.82-.55,5.52,5.52,0,0,0,1.61-1.68,9.84,9.84,0,0,0,1.12-2.65,12.88,12.88,0,0,0,.41-3.26,5.55,5.55,0,0,0-.79-3.3A2.26,2.26,0,0,0,120,85.68Z"/><path d="M133.34,98.14c0-.08,0-.18,0-.31s0-.31,0-.55.05-.55.09-.94.1-.89.18-1.52l1.26-10.14h-2.26a.61.61,0,0,1-.43-.15.58.58,0,0,1-.17-.47,1.36,1.36,0,0,1,0-.24c0-.12,0-.26,0-.41l.06-.47c0-.16,0-.31.05-.46l3.12-.42,1.5-6.26a.93.93,0,0,1,.3-.49.76.76,0,0,1,.54-.19h1.88l-.88,7H144l-.3,2.58h-5.34l-1.22,10q-.1.83-.15,1.32c0,.33-.06.6-.08.8s0,.34,0,.42a1.36,1.36,0,0,0,0,.18,2.09,2.09,0,0,0,.47,1.51,1.68,1.68,0,0,0,1.29.49,2.65,2.65,0,0,0,.92-.15,4.44,4.44,0,0,0,.69-.33l.49-.33a.61.61,0,0,1,.36-.15.39.39,0,0,1,.25.08,1,1,0,0,1,.19.26l.74,1.7a7.41,7.41,0,0,1-2.21,1.35,6.79,6.79,0,0,1-2.51.49,4.23,4.23,0,0,1-3.06-1.06A4.12,4.12,0,0,1,133.34,98.14Z"/><path d="M137.56,103.78a5.74,5.74,0,0,1-4.1-1.47,5.61,5.61,0,0,1-1.62-4.14v0c0-.1,0-.24,0-.4s0-.32,0-.58.05-.58.09-1,.11-.92.19-1.56l1.05-8.45h-.56a2,2,0,0,1-2.1-2.12,2.6,2.6,0,0,1,0-.41l.11-.9c0-.14,0-.28,0-.41A1.52,1.52,0,0,1,132,81l2.1-.28,1.26-5.26a2.44,2.44,0,0,1,.77-1.27,2.29,2.29,0,0,1,1.53-.56h1.88a1.49,1.49,0,0,1,1.12.51,1.45,1.45,0,0,1,.36,1.18l-.66,5.29H144a1.52,1.52,0,0,1,1.12.5,1.56,1.56,0,0,1,.37,1.17l-.3,2.58a1.5,1.5,0,0,1-1.49,1.33h-4l-1,8.64c-.07.54-.12,1-.15,1.29l-.12,1.2a1.64,1.64,0,0,0,.06.54h.2a1.34,1.34,0,0,0,.39,0,3.49,3.49,0,0,0,.42-.2l.39-.26a2,2,0,0,1,1.26-.45,1.81,1.81,0,0,1,1.24.46,2.49,2.49,0,0,1,.51.65l.06.13.74,1.7a1.5,1.5,0,0,1-.37,1.72,8.87,8.87,0,0,1-2.67,1.63A8.39,8.39,0,0,1,137.56,103.78Zm-2.72-5.65a2.69,2.69,0,0,0,.69,2,3,3,0,0,0,2.29.64,3.1,3.1,0,0,1-1.56-.86,3.55,3.55,0,0,1-.88-2.55c0-.07,0-.17,0-.31l.12-1.24c0-.34.09-.79.16-1.35l1.22-10a1.48,1.48,0,0,1,.9-1.2,1.45,1.45,0,0,1-.22-.21,1.49,1.49,0,0,1-.36-1.18l.3-2.41-.69,2.91a1.53,1.53,0,0,1-1,1.08,1,1,0,0,1,.22.2,1.49,1.49,0,0,1,.36,1.18L135.14,95c-.07.62-.13,1.12-.17,1.49s-.07.68-.09.92,0,.38,0,.49Z"/><path d="M146.64,102l3.55-29.46h3.57L152.1,86.18a12,12,0,0,1,3.51-3.57,7.3,7.3,0,0,1,3.95-1.21,4.33,4.33,0,0,1,3.54,1.52,6.89,6.89,0,0,1,1.24,4.42c0,.27,0,.54,0,.83s0,.58-.09.89L162.72,102h-3.57l1.53-12.9c0-.27,0-.52.06-.77a5.85,5.85,0,0,0,0-.71,4,4,0,0,0-.62-2.44,2.27,2.27,0,0,0-1.93-.8,4,4,0,0,0-1.84.49,7.7,7.7,0,0,0-1.86,1.39,12,12,0,0,0-1.67,2.17,16.52,16.52,0,0,0-1.37,2.83L150.19,102Z"/><path d="M162.72,103.46h-3.57A1.52,1.52,0,0,1,158,103a1.49,1.49,0,0,1-.36-1.18l1.52-12.9c0-.22,0-.47.06-.71s0-.4,0-.59a2.59,2.59,0,0,0-.31-1.53,1,1,0,0,0-.74-.21,2.65,2.65,0,0,0-1.16.32,6.28,6.28,0,0,0-1.48,1.12,10.31,10.31,0,0,0-1.46,1.9,14.47,14.47,0,0,0-1.17,2.4l-1.28,10.56a1.5,1.5,0,0,1-1.49,1.32h-3.55a1.52,1.52,0,0,1-1.13-.5,1.5,1.5,0,0,1-.36-1.18l3.56-29.46A1.5,1.5,0,0,1,150.19,71h3.57a1.5,1.5,0,0,1,1.48,1.68l-1.1,9.12a7.25,7.25,0,0,1,.67-.46,8.81,8.81,0,0,1,4.75-1.44,5.77,5.77,0,0,1,4.7,2.07,8.3,8.3,0,0,1,1.58,5.37q0,.43,0,.9a8.8,8.8,0,0,1-.09,1l-1.52,12.89A1.48,1.48,0,0,1,162.72,103.46Zm-1.88-3h.54l1.37-11.58c0-.28.06-.53.07-.78s0-.51,0-.76a5.46,5.46,0,0,0-.91-3.47,2.74,2.74,0,0,0-2.37-1l-.43,0a3.52,3.52,0,0,1,2.23,1.31,5.4,5.4,0,0,1,.92,3.35c0,.27,0,.54,0,.83s0,.52-.07.8Zm-12.51,0h.54L150,91a1.3,1.3,0,0,1,.08-.34,17.36,17.36,0,0,1,1.49-3.09v0h0a1.49,1.49,0,0,1-1-1.59l1.45-12h-.53Z"/><path d="M175.29,81.7,172.86,102h-3.5l2.43-20.26Zm1.34-6.36a2.12,2.12,0,0,1-.21,1,2.63,2.63,0,0,1-.56.8,2.55,2.55,0,0,1-.79.55,2.17,2.17,0,0,1-1.82,0,2.47,2.47,0,0,1-.77-.55,2.93,2.93,0,0,1-.53-.8,2.4,2.4,0,0,1-.2-1,2.49,2.49,0,0,1,.2-1,2.87,2.87,0,0,1,.54-.81,2.77,2.77,0,0,1,.79-.56,2,2,0,0,1,.89-.21,2.24,2.24,0,0,1,.92.2,2.55,2.55,0,0,1,.79.55,2.42,2.42,0,0,1,.55.82A2.37,2.37,0,0,1,176.63,75.34Z"/><path d="M172.86,103.46h-3.5a1.52,1.52,0,0,1-1.13-.5,1.5,1.5,0,0,1-.36-1.18l2.44-20.26a1.5,1.5,0,0,1,1.48-1.32h3.5a1.5,1.5,0,0,1,1.13.51,1.46,1.46,0,0,1,.36,1.17l-2.44,20.26A1.5,1.5,0,0,1,172.86,103.46Zm-1.81-3h.48L173.6,83.2h-.48Zm3.1-21.1a3.68,3.68,0,0,1-1.52-.33,4.21,4.21,0,0,1-1.24-.89,4.63,4.63,0,0,1-.81-1.22,4,4,0,0,1-.33-1.58,3.89,3.89,0,0,1,.33-1.58,4.27,4.27,0,0,1,.84-1.26,4.11,4.11,0,0,1,1.21-.86,3.63,3.63,0,0,1,3.09,0,4.29,4.29,0,0,1,1.22.86,3.88,3.88,0,0,1,.88,1.3,4,4,0,0,1,.31,1.57,3.67,3.67,0,0,1-.35,1.61,4.46,4.46,0,0,1-.85,1.22,4.34,4.34,0,0,1-1.23.86A3.75,3.75,0,0,1,174.15,79.36Zm0-5.08a.65.65,0,0,0-.25.06,1.28,1.28,0,0,0-.35.26,1.13,1.13,0,0,0-.24.36,1,1,0,0,0-.08.38,1,1,0,0,0,.07.36,1.47,1.47,0,0,0,.25.38,1,1,0,0,0,.31.21.63.63,0,0,0,.58,0,1,1,0,0,0,.34-.24,1.41,1.41,0,0,0,.27-.37.93.93,0,0,0,.06-.34.9.9,0,0,0-.08-.4.93.93,0,0,0-.23-.35.92.92,0,0,0-.35-.24A.63.63,0,0,0,174.17,74.28Z"/><path d="M179.82,102l2.41-20.28H184a1.06,1.06,0,0,1,1.2,1.2l-.31,3.92a12.51,12.51,0,0,1,3.66-4,7.41,7.41,0,0,1,4.21-1.36,4.28,4.28,0,0,1,3.5,1.52,6.79,6.79,0,0,1,1.25,4.44c0,.27,0,.54,0,.82s0,.57-.08.88L195.91,102h-3.55l1.51-12.9c0-.27.06-.52.07-.77a5.85,5.85,0,0,0,0-.71,4,4,0,0,0-.62-2.43,2.24,2.24,0,0,0-1.91-.79,4.1,4.1,0,0,0-1.94.52,7.71,7.71,0,0,0-1.91,1.47,11.37,11.37,0,0,0-1.71,2.3,16.32,16.32,0,0,0-1.36,3L183.37,102Z"/><path d="M195.91,103.46h-3.55a1.48,1.48,0,0,1-1.49-1.68l1.52-12.9.06-.71c0-.21,0-.4,0-.59a2.51,2.51,0,0,0-.3-1.51c-.22-.29-1.11-.32-2,.14a6.36,6.36,0,0,0-1.53,1.18,11,11,0,0,0-1.49,2A14.59,14.59,0,0,0,186,92l-1.15,10.14a1.49,1.49,0,0,1-1.49,1.33h-3.55a1.48,1.48,0,0,1-1.49-1.68l2.42-20.28a1.5,1.5,0,0,1,1.48-1.32H184a2.49,2.49,0,0,1,2.65,2.14c.35-.29.7-.56,1.06-.81a9,9,0,0,1,5.05-1.61A5.78,5.78,0,0,1,197.44,82,8.27,8.27,0,0,1,199,87.36c0,.29,0,.58,0,.89a8.84,8.84,0,0,1-.09,1l-1.52,12.89A1.49,1.49,0,0,1,195.91,103.46Zm-1.87-3h.54L196,88.88c0-.28.06-.53.07-.77s0-.51,0-.75a5.53,5.53,0,0,0-.9-3.49,2.83,2.83,0,0,0-2.35-1l-.51,0a3.56,3.56,0,0,1,2.28,1.31,5.34,5.34,0,0,1,.93,3.35c0,.27,0,.54,0,.83s0,.52-.07.8Zm-12.54,0H182l1-9c0-.1,0-.21.07-.31a17.86,17.86,0,0,1,1.3-3,1.51,1.51,0,0,1-1-1.52l.27-3.51h-.12Z"/><path d="M217,87.32a6.58,6.58,0,0,1-.25,1.8,8.12,8.12,0,0,1-.57,1.48,10.68,10.68,0,0,1-.74,1.28c-.26.4-.51.8-.74,1.2a9.76,9.76,0,0,0-.57,1.23,4.06,4.06,0,0,0-.23,1.37,2.91,2.91,0,0,0,.41,1.52c.28.45.58.92.9,1.4a11.29,11.29,0,0,1,.9,1.57,4.51,4.51,0,0,1,.41,2,5.75,5.75,0,0,1-.66,2.69,6.9,6.9,0,0,1-1.88,2.25,9.28,9.28,0,0,1-3,1.55,12.59,12.59,0,0,1-3.93.57,13,13,0,0,1-3.17-.36,8.11,8.11,0,0,1-2.44-1,4.92,4.92,0,0,1-1.56-1.59,4,4,0,0,1-.55-2,4.59,4.59,0,0,1,.82-2.72,6.48,6.48,0,0,1,2.16-1.88,10.78,10.78,0,0,1,3.05-1.08,17.65,17.65,0,0,1,3.49-.34c.48,0,1,0,1.43.06s1,.09,1.41.16a5.32,5.32,0,0,1-.29-.79,3.56,3.56,0,0,1-.11-.89,4.9,4.9,0,0,1,.19-1.28,8.25,8.25,0,0,1,.63-1.48,5.91,5.91,0,0,1-1.7.8,7.35,7.35,0,0,1-2.14.28,6.23,6.23,0,0,1-2.17-.38,5.13,5.13,0,0,1-1.77-1.12,5.39,5.39,0,0,1-1.2-1.85,7.06,7.06,0,0,1-.44-2.59,8,8,0,0,1,.53-2.83,7.63,7.63,0,0,1,1.55-2.48,7.53,7.53,0,0,1,2.52-1.75,8.54,8.54,0,0,1,3.46-.66,6.94,6.94,0,0,1,3.82,1h5.5l-.16,1.18a1.27,1.27,0,0,1-.23.62.77.77,0,0,1-.57.34l-2.52.44a6.45,6.45,0,0,1,.28,1.09A6.66,6.66,0,0,1,217,87.32Zm-3.72,15.14a4.25,4.25,0,0,0-.1-1,4.66,4.66,0,0,0-.26-.85c-.72-.12-1.39-.21-2-.26s-1.23-.08-1.79-.08a12.41,12.41,0,0,0-2.84.29,6.76,6.76,0,0,0-2,.77,3.45,3.45,0,0,0-1.16,1.11,2.54,2.54,0,0,0-.38,1.31,2.46,2.46,0,0,0,1.21,2.2,6.44,6.44,0,0,0,3.43.76,7.92,7.92,0,0,0,2.41-.35,6,6,0,0,0,1.86-.93,4.17,4.17,0,0,0,1.2-1.36A3.32,3.32,0,0,0,213.23,102.46Zm-4-9.64a3.77,3.77,0,0,0,1.9-.47,4.46,4.46,0,0,0,1.39-1.24,5.74,5.74,0,0,0,.87-1.73,6.49,6.49,0,0,0,.3-1.94,3.61,3.61,0,0,0-.89-2.66,3.28,3.28,0,0,0-2.45-.9,4,4,0,0,0-1.9.44,4.34,4.34,0,0,0-1.38,1.18,5.54,5.54,0,0,0-.85,1.68,6.74,6.74,0,0,0-.29,2,3.9,3.9,0,0,0,.87,2.74A3.14,3.14,0,0,0,209.23,92.82Z"/><path d="M207,110.74a14.37,14.37,0,0,1-3.53-.41,9.31,9.31,0,0,1-2.9-1.21,6.52,6.52,0,0,1-2-2.09,5.46,5.46,0,0,1-.76-2.81,6.06,6.06,0,0,1,1.11-3.6,8,8,0,0,1,2.65-2.31,11.77,11.77,0,0,1,3.48-1.24,19.13,19.13,0,0,1,4.72-.35c0-.09,0-.18,0-.27a8.68,8.68,0,0,1-4.22-.37,6.5,6.5,0,0,1-2.29-1.44,6.68,6.68,0,0,1-1.55-2.38,8.54,8.54,0,0,1-.55-3.14,9.53,9.53,0,0,1,.63-3.36,8.92,8.92,0,0,1,1.86-3,9,9,0,0,1,3-2.1,9.9,9.9,0,0,1,4.06-.79,8.59,8.59,0,0,1,4.24,1h5.08a1.5,1.5,0,0,1,1.13.51,1.48,1.48,0,0,1,.36,1.19l-.16,1.18a2.85,2.85,0,0,1-.47,1.26,2.3,2.3,0,0,1-1.58,1l-.94.17a9.69,9.69,0,0,1,.06,1.09v0a8.63,8.63,0,0,1-.3,2.18,10.49,10.49,0,0,1-.67,1.74,14.31,14.31,0,0,1-.84,1.44c-.24.37-.47.74-.68,1.11a7,7,0,0,0-.47,1,2.63,2.63,0,0,0-.14.86,1.42,1.42,0,0,0,.2.75c.26.43.54.87.85,1.33a12.44,12.44,0,0,1,1,1.76,5.94,5.94,0,0,1,.56,2.66,7.36,7.36,0,0,1-.82,3.38,8.56,8.56,0,0,1-2.28,2.73,11,11,0,0,1-3.44,1.81A14.43,14.43,0,0,1,207,110.74Zm-5.45-8.66a3.4,3.4,0,0,0-.23.3,3,3,0,0,0-.54,1.84,2.47,2.47,0,0,0,.35,1.29,3.3,3.3,0,0,0,1.08,1.09l.15.1a4.06,4.06,0,0,1-.81-4.62Zm7.47-.28a10.47,10.47,0,0,0-2.48.25,5.07,5.07,0,0,0-1.55.59,2,2,0,0,0-.66.6,1.06,1.06,0,0,0-.17.54,1,1,0,0,0,.51.93,5.13,5.13,0,0,0,2.63.53,6.31,6.31,0,0,0,2-.28,4.65,4.65,0,0,0,1.41-.7,2.72,2.72,0,0,0,.79-.88,1.91,1.91,0,0,0,.24-.92,3.64,3.64,0,0,0,0-.48l-1-.11C210.13,101.83,209.57,101.8,209.05,101.8ZM213,99.14l.13,0a1.53,1.53,0,0,1,1.15.92,8.52,8.52,0,0,1,.33,1.08,6.1,6.1,0,0,1,.13,1.3,4.88,4.88,0,0,1-.5,2.15,3.7,3.7,0,0,0,.25-.43,4.25,4.25,0,0,0,.49-2,3.06,3.06,0,0,0-.26-1.36,10.15,10.15,0,0,0-.79-1.38c-.27-.39-.52-.78-.75-1.16A1.59,1.59,0,0,1,213,99.14Zm0-6.34.06,0,.1-.21A1.21,1.21,0,0,1,213,92.8Zm-7.74-7.26a6.25,6.25,0,0,0-.67,1.28,6.43,6.43,0,0,0-.44,2.3,5.62,5.62,0,0,0,.34,2,3.67,3.67,0,0,0,.85,1.32l0,0a5.57,5.57,0,0,1-.95-3.36,8,8,0,0,1,.36-2.4A7,7,0,0,1,205.28,85.54Zm5.07-.16a2.55,2.55,0,0,0-1.19.26,2.63,2.63,0,0,0-.89.77,3.73,3.73,0,0,0-.61,1.21,5.08,5.08,0,0,0-.23,1.52,2.55,2.55,0,0,0,.47,1.72,1.64,1.64,0,0,0,1.33.46,2.31,2.31,0,0,0,1.16-.27,3,3,0,0,0,.93-.83,4.33,4.33,0,0,0,.64-1.29,4.78,4.78,0,0,0,.23-1.49,2.3,2.3,0,0,0-.45-1.61A1.77,1.77,0,0,0,210.35,85.38ZM214,83.82a5.12,5.12,0,0,1,1.23,3.62,8.15,8.15,0,0,1-.36,2.39.69.69,0,0,1,0,.1,6.84,6.84,0,0,0,.47-1.23,5.27,5.27,0,0,0,.19-1.4,5.57,5.57,0,0,0-.07-.93,7.2,7.2,0,0,0-.22-.86,1.49,1.49,0,0,1,.12-1.25,1.61,1.61,0,0,1,.25-.32h-1A1.52,1.52,0,0,1,214,83.82Zm3,3.5h0Z"/><path d="M223.05,75.9a15.59,15.59,0,0,1,1.41-1.1,10.63,10.63,0,0,1,1.62-.92,9.25,9.25,0,0,1,1.86-.63,9.54,9.54,0,0,1,2.11-.23,7.18,7.18,0,0,1,2.53.42,5.71,5.71,0,0,1,1.93,1.16,4.86,4.86,0,0,1,1.22,1.75,5.62,5.62,0,0,1,.42,2.19,7.61,7.61,0,0,1-.47,2.86,7.46,7.46,0,0,1-1.19,2A8.64,8.64,0,0,1,232.9,85l-1.66,1.22a11.29,11.29,0,0,0-1.4,1.23,3.34,3.34,0,0,0-.81,1.5L228.29,92h-2.38l.22-3.32a3.22,3.22,0,0,1,.59-1.7A8.38,8.38,0,0,1,228,85.57c.51-.43,1.05-.86,1.63-1.27a12.34,12.34,0,0,0,1.6-1.34,6.5,6.5,0,0,0,1.22-1.63A4.41,4.41,0,0,0,233,79.2a3.2,3.2,0,0,0-.95-2.46,3.58,3.58,0,0,0-2.57-.9,5.69,5.69,0,0,0-1.94.3,8.45,8.45,0,0,0-1.41.66,11.73,11.73,0,0,0-1,.66,1.15,1.15,0,0,1-.65.3.7.7,0,0,1-.68-.44Zm1,23.86a2.67,2.67,0,0,1,.19-1,2.57,2.57,0,0,1,.52-.8,2.37,2.37,0,0,1,.78-.54,2.53,2.53,0,0,1,2,0,2.36,2.36,0,0,1,.8.54,2.28,2.28,0,0,1,.53.8,2.65,2.65,0,0,1,0,2,2.44,2.44,0,0,1-1.33,1.32,2.65,2.65,0,0,1-2,0,2.35,2.35,0,0,1-.78-.53,2.5,2.5,0,0,1-.71-1.78Z"/><path d="M226.55,103.76a3.93,3.93,0,0,1-1.57-.31,3.69,3.69,0,0,1-1.27-.87,4,4,0,0,1-.83-1.25,4.08,4.08,0,0,1,.83-4.39,3.8,3.8,0,0,1,1.25-.87,4,4,0,0,1,4.43.85,3.89,3.89,0,0,1,.86,1.29,4.21,4.21,0,0,1,0,3.12,4,4,0,0,1-.86,1.27,4,4,0,0,1-1.28.86A4.09,4.09,0,0,1,226.55,103.76Zm0-5a.89.89,0,0,0-.38.07,1.41,1.41,0,0,0-.31.21.93.93,0,0,0-.21.33,1.11,1.11,0,0,0-.08.41,1.25,1.25,0,0,0,.07.41,1.46,1.46,0,0,0,.22.33.86.86,0,0,0,.29.19,1.13,1.13,0,0,0,.81,0,.83.83,0,0,0,.31-.2,1,1,0,0,0,.21-.31,1,1,0,0,0,.07-.41,1.1,1.1,0,0,0-.07-.41,1,1,0,0,0-.21-.31,1,1,0,0,0-.33-.22A.85.85,0,0,0,226.55,98.74Zm1.74-5.26h-2.38a1.51,1.51,0,0,1-1.49-1.6l.22-3.32a4.65,4.65,0,0,1,.86-2.47A9.58,9.58,0,0,1,227,84.43c.53-.46,1.12-.91,1.73-1.35a12.77,12.77,0,0,0,1.42-1.19,5.14,5.14,0,0,0,.95-1.27,2.92,2.92,0,0,0,.31-1.42,1.69,1.69,0,0,0-.48-1.37,2.14,2.14,0,0,0-1.54-.49,4.17,4.17,0,0,0-1.42.21,6.21,6.21,0,0,0-1.15.53c-.33.21-.62.4-.84.57a2.24,2.24,0,0,1-3.61-.71l-.69-1.36a1.51,1.51,0,0,1,.34-1.81,17.21,17.21,0,0,1,1.55-1.2,11.5,11.5,0,0,1,1.85-1,10.67,10.67,0,0,1,2.15-.73,10.15,10.15,0,0,1,5.5.24,7.21,7.21,0,0,1,2.42,1.47,6.44,6.44,0,0,1,1.59,2.27,7.3,7.3,0,0,1,.53,2.77,9.39,9.39,0,0,1-.57,3.42,9.23,9.23,0,0,1-1.43,2.45,10.28,10.28,0,0,1-1.87,1.75l-1.64,1.21a9.81,9.81,0,0,0-1.21,1.07,1.75,1.75,0,0,0-.44.8l-.74,3.09A1.5,1.5,0,0,1,228.29,93.48Zm3.11-18.82a4.39,4.39,0,0,1,1.63,1,4.66,4.66,0,0,1,1.42,3.55,6.3,6.3,0,0,1-.28,1.93l.12-.29a6.31,6.31,0,0,0,.36-2.3,4.28,4.28,0,0,0-.3-1.62,3.47,3.47,0,0,0-.86-1.22,4.12,4.12,0,0,0-1.43-.85A4.58,4.58,0,0,0,231.4,74.66Zm-6.3,2v0S225.1,76.62,225.1,76.61Z"/><path class="cls-1" d="M21,5.36H8.42L7.22,15H17.38L17,18H6.86l-1.22,10H18.22l-.38,3H1.5L5,2.3h16.3Z"/><path class="cls-1" d="M23.6,10.7h2.88a.89.89,0,0,1,.64.22,1,1,0,0,1,.3.52l3,13A12.62,12.62,0,0,1,30.67,26c0,.49.08,1,.11,1.46.15-.48.3-1,.46-1.45a12.89,12.89,0,0,1,.6-1.49l6.28-13a1.51,1.51,0,0,1,.44-.53,1,1,0,0,1,.62-.21H42L31.8,31h-3Z"/><path class="cls-1" d="M59.44,15a5.48,5.48,0,0,1-.54,2.43,5,5,0,0,1-2,2A14.89,14.89,0,0,1,53,21a44.1,44.1,0,0,1-6.48,1.06c0,.15,0,.29,0,.43v.43A6.25,6.25,0,0,0,47.63,27a4.33,4.33,0,0,0,3.53,1.41,6.8,6.8,0,0,0,1.71-.2,7.21,7.21,0,0,0,1.34-.49,6.13,6.13,0,0,0,1-.64l.83-.64c.25-.19.49-.36.7-.49a1.23,1.23,0,0,1,.64-.2.86.86,0,0,1,.66.34l.88,1.1A17.83,17.83,0,0,1,57,29a11.54,11.54,0,0,1-2,1.25,8.94,8.94,0,0,1-2.13.73,12,12,0,0,1-2.39.23,7.92,7.92,0,0,1-3.12-.58A6.54,6.54,0,0,1,45,29a7.47,7.47,0,0,1-1.48-2.59A10.37,10.37,0,0,1,43,23a14.87,14.87,0,0,1,.33-3.11,14.55,14.55,0,0,1,1-2.95,13.29,13.29,0,0,1,1.54-2.6,10.46,10.46,0,0,1,2.08-2.07,9.67,9.67,0,0,1,2.58-1.37,9.08,9.08,0,0,1,3-.5,7.34,7.34,0,0,1,2.66.44A5.62,5.62,0,0,1,58,12a4.37,4.37,0,0,1,1.07,1.5A4.06,4.06,0,0,1,59.44,15ZM53.32,13A5.16,5.16,0,0,0,51,13.5a6.18,6.18,0,0,0-1.88,1.43,8.8,8.8,0,0,0-1.4,2.14,12.34,12.34,0,0,0-.9,2.65,37.76,37.76,0,0,0,4.94-.87,12.5,12.5,0,0,0,2.86-1.06,3.06,3.06,0,0,0,1.32-1.23,3.17,3.17,0,0,0,.32-1.38,1.91,1.91,0,0,0-.16-.75,2,2,0,0,0-.51-.71,2.84,2.84,0,0,0-.91-.53A3.89,3.89,0,0,0,53.32,13Z"/><path class="cls-1" d="M62.88,31l2.44-20.28H67.1a1.38,1.38,0,0,1,.88.26,1,1,0,0,1,.32.8,2.2,2.2,0,0,1,0,.23c0,.1,0,.2,0,.31s0,.2,0,.28a1.13,1.13,0,0,0,0,.14L68,16.38a14,14,0,0,1,2.91-4.32,4.91,4.91,0,0,1,3.39-1.52,4.24,4.24,0,0,1,1.68.36l-.64,3.42a4.91,4.91,0,0,0-1.82-.38A4.39,4.39,0,0,0,70,15.83a15.71,15.71,0,0,0-2.54,5.73L66.36,31Z"/><path class="cls-1" d="M83,37a1.32,1.32,0,0,1-1.24.82h-2.6l4.38-8.06L78.32,10.7h2.94a.86.86,0,0,1,.63.21,1.1,1.1,0,0,1,.29.53L85.44,24.2a8.28,8.28,0,0,1,.16.84c0,.28.07.56.1.84.12-.28.24-.56.35-.85a7.2,7.2,0,0,1,.39-.85l6.4-12.78a1.39,1.39,0,0,1,.45-.51,1,1,0,0,1,.59-.19H96.7Z"/><path class="cls-1" d="M100.12,27.14c0-.08,0-.18,0-.31s0-.31,0-.55,0-.55.09-.94.1-.89.18-1.52l1.26-10.14H99.44a.63.63,0,0,1-.43-.15.61.61,0,0,1-.17-.47s0-.12,0-.24,0-.26,0-.41l.06-.47c0-.16,0-.31,0-.46l3.12-.42,1.5-6.26a.93.93,0,0,1,.3-.49.79.79,0,0,1,.54-.19h1.88l-.88,7h5.32l-.3,2.58h-5.34l-1.22,10q-.1.83-.15,1.32c0,.33-.06.6-.08.8s0,.34,0,.42a1.36,1.36,0,0,0,0,.18,2.13,2.13,0,0,0,.47,1.51,1.68,1.68,0,0,0,1.29.49,2.61,2.61,0,0,0,.92-.15,3.71,3.71,0,0,0,.69-.33c.19-.12.36-.23.49-.33a.61.61,0,0,1,.36-.15.37.37,0,0,1,.25.08,1,1,0,0,1,.19.26l.74,1.7a7.41,7.41,0,0,1-2.21,1.35,6.75,6.75,0,0,1-2.51.49,4.27,4.27,0,0,1-3.06-1.06A4.16,4.16,0,0,1,100.12,27.14Z"/><path class="cls-1" d="M113.42,31,117,1.5h3.56l-1.66,13.68a12,12,0,0,1,3.51-3.57,7.32,7.32,0,0,1,4-1.21,4.33,4.33,0,0,1,3.54,1.52,6.83,6.83,0,0,1,1.24,4.42c0,.27,0,.54,0,.83s0,.58-.08.89L129.5,31h-3.56l1.52-12.9c0-.27.05-.52.07-.77s0-.48,0-.71a4,4,0,0,0-.61-2.44,2.29,2.29,0,0,0-1.93-.8,4,4,0,0,0-1.85.49,7.66,7.66,0,0,0-1.85,1.39,11.63,11.63,0,0,0-1.68,2.17,16.5,16.5,0,0,0-1.36,2.83L117,31Z"/><path class="cls-1" d="M142.08,10.7,139.64,31h-3.5l2.44-20.26Zm1.34-6.36a2.25,2.25,0,0,1-.21,1,2.81,2.81,0,0,1-.56.8,2.68,2.68,0,0,1-.79.55,2.24,2.24,0,0,1-.92.2,2.18,2.18,0,0,1-.9-.2,2.47,2.47,0,0,1-.77-.55,2.72,2.72,0,0,1-.53-.8,2.4,2.4,0,0,1-.2-1,2.57,2.57,0,0,1,.74-1.79,2.86,2.86,0,0,1,.78-.56,2,2,0,0,1,.9-.21,2.24,2.24,0,0,1,.92.2,2.68,2.68,0,0,1,.79.55,2.57,2.57,0,0,1,.55.82A2.54,2.54,0,0,1,143.42,4.34Z"/><path class="cls-1" d="M146.6,31,149,10.68h1.78a1.06,1.06,0,0,1,1.2,1.2l-.3,3.92a12.49,12.49,0,0,1,3.65-4,7.44,7.44,0,0,1,4.21-1.36,4.3,4.3,0,0,1,3.51,1.52,6.85,6.85,0,0,1,1.25,4.44c0,.27,0,.54,0,.82s0,.57-.08.88L162.7,31h-3.56l1.52-12.9c0-.27.05-.52.07-.77s0-.48,0-.71a4,4,0,0,0-.61-2.43,2.25,2.25,0,0,0-1.91-.79,4.13,4.13,0,0,0-2,.52,7.71,7.71,0,0,0-1.91,1.47,11.76,11.76,0,0,0-1.71,2.3,15.67,15.67,0,0,0-1.35,3L150.16,31Z"/><path class="cls-1" d="M183.74,16.32a7.45,7.45,0,0,1-.25,1.8,9.9,9.9,0,0,1-.57,1.48,14.29,14.29,0,0,1-.74,1.28c-.27.4-.52.8-.74,1.2a7.58,7.58,0,0,0-.57,1.23,3.83,3.83,0,0,0-.23,1.37,2.82,2.82,0,0,0,.41,1.52c.27.45.57.92.9,1.4a13.74,13.74,0,0,1,.9,1.57,4.65,4.65,0,0,1,.41,2,5.75,5.75,0,0,1-.66,2.69,7,7,0,0,1-1.88,2.25,9.49,9.49,0,0,1-3,1.55,12.68,12.68,0,0,1-3.93.57,13,13,0,0,1-3.17-.36,7.9,7.9,0,0,1-2.44-1,4.73,4.73,0,0,1-1.56-1.59,3.91,3.91,0,0,1-.55-2.05,4.52,4.52,0,0,1,.82-2.72,6.29,6.29,0,0,1,2.16-1.88,10.67,10.67,0,0,1,3-1.08,17.58,17.58,0,0,1,3.49-.34c.48,0,.95,0,1.43.06s.94.09,1.41.16a4.4,4.4,0,0,1-.29-.79,3.15,3.15,0,0,1-.11-.89,4.51,4.51,0,0,1,.19-1.28,7,7,0,0,1,.63-1.48,6.18,6.18,0,0,1-1.7.8,7.4,7.4,0,0,1-2.14.28,6.15,6.15,0,0,1-2.17-.38,5,5,0,0,1-1.77-1.12,5.11,5.11,0,0,1-1.2-1.85,6.86,6.86,0,0,1-.44-2.59,7.76,7.76,0,0,1,.53-2.83,7.45,7.45,0,0,1,4.07-4.23,8.51,8.51,0,0,1,3.46-.66,7,7,0,0,1,3.82,1h5.5l-.16,1.18a1.5,1.5,0,0,1-.23.62.81.81,0,0,1-.57.34l-2.52.44a7.56,7.56,0,0,1,.28,1.09A7.69,7.69,0,0,1,183.74,16.32ZM180,31.46a4.9,4.9,0,0,0-.1-1,7,7,0,0,0-.26-.85c-.72-.12-1.4-.21-2-.26s-1.23-.08-1.79-.08a12.35,12.35,0,0,0-2.84.29,6.76,6.76,0,0,0-2,.77,3.36,3.36,0,0,0-1.16,1.11,2.55,2.55,0,0,0,.83,3.51,6.41,6.41,0,0,0,3.43.76,8,8,0,0,0,2.41-.35,6.23,6.23,0,0,0,1.86-.93,4.41,4.41,0,0,0,1.2-1.36A3.43,3.43,0,0,0,180,31.46Zm-4-9.64a3.8,3.8,0,0,0,1.9-.47,4.57,4.57,0,0,0,1.39-1.24,5.74,5.74,0,0,0,.87-1.73,6.49,6.49,0,0,0,.3-1.94,3.65,3.65,0,0,0-.89-2.66,3.3,3.3,0,0,0-2.45-.9,4,4,0,0,0-1.9.44,4.14,4.14,0,0,0-1.38,1.18,5.12,5.12,0,0,0-.85,1.68,6.42,6.42,0,0,0-.29,2,3.9,3.9,0,0,0,.87,2.74A3.14,3.14,0,0,0,176,21.82Z"/><path class="cls-1" d="M115.23,65.24a7.91,7.91,0,0,1-3-.57A6.67,6.67,0,0,1,109.82,63a7.52,7.52,0,0,1-1.56-2.64,10.35,10.35,0,0,1-.57-3.56A14.18,14.18,0,0,1,108.5,52a12.88,12.88,0,0,1,2.19-4A10.3,10.3,0,0,1,114,45.36a8.78,8.78,0,0,1,4.09-1,7.91,7.91,0,0,1,3,.57,6.71,6.71,0,0,1,2.38,1.65A7.6,7.6,0,0,1,125,49.25a10.37,10.37,0,0,1,.57,3.55,14.39,14.39,0,0,1-.8,4.8,13.31,13.31,0,0,1-2.19,4,10.62,10.62,0,0,1-3.29,2.69A8.73,8.73,0,0,1,115.23,65.24Zm.33-2.78a4.73,4.73,0,0,0,2.66-.8,7.06,7.06,0,0,0,2-2.13,11.09,11.09,0,0,0,1.3-3.07,14.46,14.46,0,0,0,.46-3.64,6.84,6.84,0,0,0-1.1-4.22,3.8,3.8,0,0,0-3.19-1.42,4.67,4.67,0,0,0-2.66.79,7,7,0,0,0-2,2.12,11.4,11.4,0,0,0-1.3,3.07,14.46,14.46,0,0,0-.45,3.64A6.94,6.94,0,0,0,112.36,61,3.78,3.78,0,0,0,115.56,62.46Z"/><path class="cls-1" d="M129.32,65l2.44-20.28h1.77a1.36,1.36,0,0,1,.88.26,1,1,0,0,1,.32.8V46l0,.31c0,.11,0,.2,0,.28a1.13,1.13,0,0,0,0,.14l-.28,3.68a13.67,13.67,0,0,1,2.91-4.32,4.9,4.9,0,0,1,3.38-1.52,4.16,4.16,0,0,1,1.68.36l-.64,3.42a4.87,4.87,0,0,0-1.82-.38,4.41,4.41,0,0,0-3.46,1.89,15.88,15.88,0,0,0-2.54,5.73L132.8,65Z"/><path class="cls-1" d="M88,73.42a1.35,1.35,0,0,1,.47.52l12.36,21.9c0-.31,0-.6.08-.87s.05-.54.08-.79l2.56-20.88h3.3L103.3,102h-1.88a1.69,1.69,0,0,1-.76-.15,1.21,1.21,0,0,1-.52-.55L87.8,79.34c0,.07,0,.16,0,.28l0,.38c0,.13,0,.27,0,.41s0,.26,0,.35L85.08,102h-3.3L85.32,73.3h1.92A1.69,1.69,0,0,1,88,73.42Z"/><path class="cls-1" d="M117.5,102.24a7.88,7.88,0,0,1-3-.57,6.62,6.62,0,0,1-2.38-1.65,7.52,7.52,0,0,1-1.56-2.64,10.35,10.35,0,0,1-.56-3.56,14.17,14.17,0,0,1,.8-4.82A12.88,12.88,0,0,1,113,85a10.3,10.3,0,0,1,3.28-2.68,8.78,8.78,0,0,1,4.09-1,7.91,7.91,0,0,1,3,.57,6.71,6.71,0,0,1,2.38,1.65,7.78,7.78,0,0,1,1.56,2.65,10.62,10.62,0,0,1,.56,3.55,14.39,14.39,0,0,1-.8,4.8,13.31,13.31,0,0,1-2.19,4,10.62,10.62,0,0,1-3.29,2.69A8.72,8.72,0,0,1,117.5,102.24Zm.32-2.78a4.73,4.73,0,0,0,2.66-.8,6.94,6.94,0,0,0,2-2.13,11.09,11.09,0,0,0,1.3-3.07,14.46,14.46,0,0,0,.46-3.64,6.84,6.84,0,0,0-1.1-4.22A3.79,3.79,0,0,0,120,84.18a4.68,4.68,0,0,0-2.67.79,6.88,6.88,0,0,0-2,2.12,10.8,10.8,0,0,0-1.3,3.07,14,14,0,0,0-.46,3.64A6.87,6.87,0,0,0,114.63,98,3.76,3.76,0,0,0,117.82,99.46Z"/><path class="cls-1" d="M133.34,98.14c0-.08,0-.18,0-.31s0-.31,0-.55.05-.55.09-.94.1-.89.18-1.52l1.26-10.14h-2.26a.61.61,0,0,1-.43-.15.58.58,0,0,1-.17-.47,1.36,1.36,0,0,1,0-.24c0-.12,0-.26,0-.41l.06-.47c0-.16,0-.31.05-.46l3.12-.42,1.5-6.26a.93.93,0,0,1,.3-.49.76.76,0,0,1,.54-.19h1.88l-.88,7H144l-.3,2.58h-5.34l-1.22,10q-.1.83-.15,1.32c0,.33-.06.6-.08.8s0,.34,0,.42a1.36,1.36,0,0,0,0,.18,2.09,2.09,0,0,0,.47,1.51,1.68,1.68,0,0,0,1.29.49,2.65,2.65,0,0,0,.92-.15,4.44,4.44,0,0,0,.69-.33l.49-.33a.61.61,0,0,1,.36-.15.39.39,0,0,1,.25.08,1,1,0,0,1,.19.26l.74,1.7a7.41,7.41,0,0,1-2.21,1.35,6.79,6.79,0,0,1-2.51.49,4.23,4.23,0,0,1-3.06-1.06A4.12,4.12,0,0,1,133.34,98.14Z"/><path class="cls-1" d="M146.64,102l3.55-29.46h3.57L152.1,86.18a12,12,0,0,1,3.51-3.57,7.3,7.3,0,0,1,3.95-1.21,4.33,4.33,0,0,1,3.54,1.52,6.89,6.89,0,0,1,1.24,4.42c0,.27,0,.54,0,.83s0,.58-.09.89L162.72,102h-3.57l1.53-12.9c0-.27,0-.52.06-.77a5.85,5.85,0,0,0,0-.71,4,4,0,0,0-.62-2.44,2.27,2.27,0,0,0-1.93-.8,4,4,0,0,0-1.84.49,7.7,7.7,0,0,0-1.86,1.39,12,12,0,0,0-1.67,2.17,16.52,16.52,0,0,0-1.37,2.83L150.19,102Z"/><path class="cls-1" d="M175.29,81.7,172.86,102h-3.5l2.43-20.26Zm1.34-6.36a2.12,2.12,0,0,1-.21,1,2.63,2.63,0,0,1-.56.8,2.55,2.55,0,0,1-.79.55,2.17,2.17,0,0,1-1.82,0,2.47,2.47,0,0,1-.77-.55,2.93,2.93,0,0,1-.53-.8,2.4,2.4,0,0,1-.2-1,2.49,2.49,0,0,1,.2-1,2.87,2.87,0,0,1,.54-.81,2.77,2.77,0,0,1,.79-.56,2,2,0,0,1,.89-.21,2.24,2.24,0,0,1,.92.2,2.55,2.55,0,0,1,.79.55,2.42,2.42,0,0,1,.55.82A2.37,2.37,0,0,1,176.63,75.34Z"/><path class="cls-1" d="M179.82,102l2.41-20.28H184a1.06,1.06,0,0,1,1.2,1.2l-.31,3.92a12.51,12.51,0,0,1,3.66-4,7.41,7.41,0,0,1,4.21-1.36,4.28,4.28,0,0,1,3.5,1.52,6.79,6.79,0,0,1,1.25,4.44c0,.27,0,.54,0,.82s0,.57-.08.88L195.91,102h-3.55l1.51-12.9c0-.27.06-.52.07-.77a5.85,5.85,0,0,0,0-.71,4,4,0,0,0-.62-2.43,2.24,2.24,0,0,0-1.91-.79,4.1,4.1,0,0,0-1.94.52,7.71,7.71,0,0,0-1.91,1.47,11.37,11.37,0,0,0-1.71,2.3,16.32,16.32,0,0,0-1.36,3L183.37,102Z"/><path class="cls-1" d="M217,87.32a6.58,6.58,0,0,1-.25,1.8,8.12,8.12,0,0,1-.57,1.48,10.68,10.68,0,0,1-.74,1.28c-.26.4-.51.8-.74,1.2a9.76,9.76,0,0,0-.57,1.23,4.06,4.06,0,0,0-.23,1.37,2.91,2.91,0,0,0,.41,1.52c.28.45.58.92.9,1.4a11.29,11.29,0,0,1,.9,1.57,4.51,4.51,0,0,1,.41,2,5.75,5.75,0,0,1-.66,2.69,6.9,6.9,0,0,1-1.88,2.25,9.28,9.28,0,0,1-3,1.55,12.59,12.59,0,0,1-3.93.57,13,13,0,0,1-3.17-.36,8.11,8.11,0,0,1-2.44-1,4.92,4.92,0,0,1-1.56-1.59,4,4,0,0,1-.55-2,4.59,4.59,0,0,1,.82-2.72,6.48,6.48,0,0,1,2.16-1.88,10.78,10.78,0,0,1,3.05-1.08,17.65,17.65,0,0,1,3.49-.34c.48,0,1,0,1.43.06s1,.09,1.41.16a5.32,5.32,0,0,1-.29-.79,3.56,3.56,0,0,1-.11-.89,4.9,4.9,0,0,1,.19-1.28,8.25,8.25,0,0,1,.63-1.48,5.91,5.91,0,0,1-1.7.8,7.35,7.35,0,0,1-2.14.28,6.23,6.23,0,0,1-2.17-.38,5.13,5.13,0,0,1-1.77-1.12,5.39,5.39,0,0,1-1.2-1.85,7.06,7.06,0,0,1-.44-2.59,8,8,0,0,1,.53-2.83,7.63,7.63,0,0,1,1.55-2.48,7.53,7.53,0,0,1,2.52-1.75,8.54,8.54,0,0,1,3.46-.66,6.94,6.94,0,0,1,3.82,1h5.5l-.16,1.18a1.27,1.27,0,0,1-.23.62.77.77,0,0,1-.57.34l-2.52.44a6.45,6.45,0,0,1,.28,1.09A6.66,6.66,0,0,1,217,87.32Zm-3.72,15.14a4.25,4.25,0,0,0-.1-1,4.66,4.66,0,0,0-.26-.85c-.72-.12-1.39-.21-2-.26s-1.23-.08-1.79-.08a12.41,12.41,0,0,0-2.84.29,6.76,6.76,0,0,0-2,.77,3.45,3.45,0,0,0-1.16,1.11,2.54,2.54,0,0,0-.38,1.31,2.46,2.46,0,0,0,1.21,2.2,6.44,6.44,0,0,0,3.43.76,7.92,7.92,0,0,0,2.41-.35,6,6,0,0,0,1.86-.93,4.17,4.17,0,0,0,1.2-1.36A3.32,3.32,0,0,0,213.23,102.46Zm-4-9.64a3.77,3.77,0,0,0,1.9-.47,4.46,4.46,0,0,0,1.39-1.24,5.74,5.74,0,0,0,.87-1.73,6.49,6.49,0,0,0,.3-1.94,3.61,3.61,0,0,0-.89-2.66,3.28,3.28,0,0,0-2.45-.9,4,4,0,0,0-1.9.44,4.34,4.34,0,0,0-1.38,1.18,5.54,5.54,0,0,0-.85,1.68,6.74,6.74,0,0,0-.29,2,3.9,3.9,0,0,0,.87,2.74A3.14,3.14,0,0,0,209.23,92.82Z"/><path class="cls-1" d="M223.05,75.9a15.59,15.59,0,0,1,1.41-1.1,10.63,10.63,0,0,1,1.62-.92,9.25,9.25,0,0,1,1.86-.63,9.54,9.54,0,0,1,2.11-.23,7.18,7.18,0,0,1,2.53.42,5.71,5.71,0,0,1,1.93,1.16,4.86,4.86,0,0,1,1.22,1.75,5.62,5.62,0,0,1,.42,2.19,7.61,7.61,0,0,1-.47,2.86,7.46,7.46,0,0,1-1.19,2A8.64,8.64,0,0,1,232.9,85l-1.66,1.22a11.29,11.29,0,0,0-1.4,1.23,3.34,3.34,0,0,0-.81,1.5L228.29,92h-2.38l.22-3.32a3.22,3.22,0,0,1,.59-1.7A8.38,8.38,0,0,1,228,85.57c.51-.43,1.05-.86,1.63-1.27a12.34,12.34,0,0,0,1.6-1.34,6.5,6.5,0,0,0,1.22-1.63A4.41,4.41,0,0,0,233,79.2a3.2,3.2,0,0,0-.95-2.46,3.58,3.58,0,0,0-2.57-.9,5.69,5.69,0,0,0-1.94.3,8.45,8.45,0,0,0-1.41.66,11.73,11.73,0,0,0-1,.66,1.15,1.15,0,0,1-.65.3.7.7,0,0,1-.68-.44Zm1,23.86a2.67,2.67,0,0,1,.19-1,2.57,2.57,0,0,1,.52-.8,2.37,2.37,0,0,1,.78-.54,2.53,2.53,0,0,1,2,0,2.36,2.36,0,0,1,.8.54,2.28,2.28,0,0,1,.53.8,2.65,2.65,0,0,1,0,2,2.44,2.44,0,0,1-1.33,1.32,2.65,2.65,0,0,1-2,0,2.35,2.35,0,0,1-.78-.53,2.5,2.5,0,0,1-.71-1.78Z"/></g></g></svg>