<svg xmlns="http://www.w3.org/2000/svg" viewBox="0 0 326.74 86.94"><defs><style>.cls-1{fill:#fff;}</style></defs><title>team</title><g id="Layer_2" data-name="Layer 2"><g id="Layer_6" data-name="Layer 6"><path d="M.11,3.17V1.08H54.77V3.17Zm0,5.63V6.65H54.77V8.8Zm21.07,5.69H.11V12.27H54.77v2.22H34.54V86.94H32.38V14.49H29V86.94H26.81V14.49H23.4V86.94H21.18Z"/><path d="M88.39,0h24.49V2.22H73.54a21.06,21.06,0,0,0-2.69.12,11.36,11.36,0,0,0-2.22.59l-.48.18-.48.18-.9.9a7.25,7.25,0,0,0-.83,1.92,8.13,8.13,0,0,0-.36,2.57V77.12a8.13,8.13,0,0,0,.36,2.57,8.88,8.88,0,0,0,.83,2,3.86,3.86,0,0,0,.9.72,5.38,5.38,0,0,0,1,.48,8.86,8.86,0,0,0,2.22.65h42v2.16H72.82a22.51,22.51,0,0,1-3.23-.12,6.66,6.66,0,0,1-2.46-.84l-.48-.27a2.85,2.85,0,0,1-.47-.33,4.69,4.69,0,0,1-1-1,8.07,8.07,0,0,1-1.26-2,7.74,7.74,0,0,1-.6-3.11V7.72A6.51,6.51,0,0,1,64,4.79a8.44,8.44,0,0,1,1.26-2.1,2.82,2.82,0,0,1,1-.95,1.92,1.92,0,0,1,.95-.66,4.7,4.7,0,0,1,2.46-1A29.67,29.67,0,0,1,72.82,0H88.39Zm-12,5.63h36.53V7.84H71.68c-.08,0-.24.12-.47.36V77.48l.47.48h41.2v2.21H76.35c-.39,0-1-.06-1.82-.06s-1.43,0-1.83-.06a10.2,10.2,0,0,1-1.85-.12,2.66,2.66,0,0,1-.84-.12.73.73,0,0,1-.66-.48A16.78,16.78,0,0,1,69,75.68V10.18a17.09,17.09,0,0,1,.36-3.71,1.4,1.4,0,0,1,.66-.6,2.06,2.06,0,0,0,.84-.12c.2,0,.51,0,.92-.06s.73-.06.93-.06Zm.36,5.63h36.17v2.21h-36v22.1h31v2.21h-31v3.41h31v2.22h-31v3.41h31V49h-31V72.33h36.05v2.21h-38a.21.21,0,0,1-.24-.24V11.38a.35.35,0,0,1,.24-.12h1.85Z"/><path d="M194.27,57.48q7.3,17,12.52,28.38h-2.34q-1.8-3.83-12.09-27.48-1.92-4.44-6.08-13.92t-5.36-12.19q-4.36-10.05-6.35-14.73c-1.19-2.67-2.09-4.73-2.69-6.16q-.24-.54-.75-1.59t-.75-1.59l-.24-.72-.36-.71a2.28,2.28,0,0,0-.47-.66,2.78,2.78,0,0,0-.36-.6,12.45,12.45,0,0,0-3.12-2.7,2.89,2.89,0,0,0-.6-.35A3.84,3.84,0,0,0,164,2.22a4,4,0,0,0-1,.35l-.3.18a1.8,1.8,0,0,1-.3.18A14.56,14.56,0,0,0,159.25,6a5,5,0,0,0-.36.66l-.42.71-.72,1.56A33.4,33.4,0,0,1,156.43,12q-.54,1.19-2,4.52c-1,2.21-1.75,3.92-2.31,5.11q-5.75,13-6.52,14.73-.9,2-5.18,11.77t-6.2,14.22q-2,4.42-4.4,9.94T126,81.07c-.94,2.16-1.67,3.75-2.19,4.79h-2.33l2-4.55q1.5-3.36,4-9t4.79-10.78q3.36-7.66,11.44-26,1.32-2.82,3.71-8.39t2.76-6.34q2.08-4.56,4.67-10.66c.67-1.36,1.25-2.64,1.73-3.83l.84-1.8.48-.9q0-.12.24-.36l.24-.36.3-.24c0-.07.08-.19.24-.35l.48-.48.48-.33.47-.33,1-.48.72-.36h.24l.24-.12h.36A2.66,2.66,0,0,1,164,.12h1.31a1.65,1.65,0,0,1,.33.09l.39.15a7.51,7.51,0,0,1,3.71,2.1,1.26,1.26,0,0,1,.48.59l.24.36.12.12.12.24.48.9.42,1c0,.12.6,1.4,1.68,3.83.36,1,.94,2.28,1.73,3.95s1.3,2.76,1.5,3.24q2,4.67,6.35,14.72Q189.9,47.36,194.27,57.48Zm-16.4-23.89q2.38,5.5,6.34,14.7l4.91,11.4q9.58,21.69,11.68,26.17h-2.46Q197.09,83,193.2,74.15l-6-13.56q-10.54-24.3-11.32-26.16c-.84-1.88-2-4.6-3.62-8.17s-2.53-5.74-2.84-6.5-.82-2-1.5-3.47l-1.32-2.94c-.12-.32-.58-1.37-1.38-3.17l-.35-.72a.47.47,0,0,0-.72-.24q-.66,0-.66.48l-.36.84q-2.64,5.93-33.23,75.32h-2.46q1.32-2.82,9.82-22.09,3.54-8.15,11.56-26c.64-1.48,1.65-3.85,3-7.12s2.5-5.81,3.3-7.61l1.16-2.54q.75-1.65,1.35-3c.4-.89.76-1.74,1.08-2.54l1-2.22c.39-.79.71-1.49,1-2.09Q161,10,161.76,8.8c.48-.8.82-1.4,1-1.79l.48-.78a.75.75,0,0,1,.78-.6.92.92,0,0,1,1.07.24.7.7,0,0,1,.12.18.7.7,0,0,0,.12.18l.24.54c0,.08.31.55.81,1.4s.89,1.57,1.17,2.13q.18.36.51,1.08c.22.48.37.81.45,1s.29.61.51,1.11.39.87.51,1.11c.19.48.49,1.18.89,2.1s.7,1.63.9,2.15c.64,1.44,1.7,3.81,3.17,7.13S177.11,31.83,177.87,33.59Zm-5.15,2.22q7,16,11.37,26.1,4.14,9.47,10.6,24h-2.33q-4.2-9.35-8.5-19.4H144.52q-1.86,4.26-4.76,10.75T136,85.86h-2.34q5.15-11.67,30.18-68.56l.12-.24a.56.56,0,0,0,.12-.18c0-.07.08-.11.12-.11a.5.5,0,0,1,.36.17l.12.24.59,1.32.57,1.29.57,1.29c.8,1.79,1.9,4.33,3.3,7.6S172.08,34.33,172.72,35.81ZM145.48,64.25H182.9l-.75-1.65L181.4,61H147l-.75,1.65C145.88,63.34,145.63,63.89,145.48,64.25ZM179,55.44H149.43l-.75,1.65-.75,1.65h32.51l-.75-1.65C179.35,56.35,179.1,55.8,179,55.44ZM164.28,21.67q-8.57,19.47-14,31.56H178q-2.46-5.56-7.19-16.5T164.28,21.67Z"/><path d="M310.52,13.71l2.09,9.34,14.13,62.51h-2.21l-14-62.15-2-8.68-.72-3.35a3.68,3.68,0,0,1-.24-.75,5.9,5.9,0,0,0-.24-.81L307,8.32l-.6-1.19-.12-.24L306,6.65l-.24-.54a11.19,11.19,0,0,0-1.32-1.68,7.54,7.54,0,0,0-2-1.38,9,9,0,0,0-2.57-.71,9.29,9.29,0,0,0-2.58,0,9.1,9.1,0,0,0-2.57.83A16.77,16.77,0,0,0,293,4.43q-.12.12-.36.42t-.36.42q-.12.18-.36.48c-.15.2-.27.36-.35.48l-.6,1.13a2.28,2.28,0,0,0-.42.6l-.24.72-.12.36a.64.64,0,0,0-.12.21.64.64,0,0,1-.12.21l-.24.84-.48,1.62L279.26,44l-7.6,24.91a2.12,2.12,0,0,1-.18.29c-.08.12-.14.23-.18.3a1.88,1.88,0,0,1-.48.36,1.38,1.38,0,0,1-1.26-.12,2.89,2.89,0,0,1-.48-1.19l-.36-1.26-3.83-12.87L256,23.89l-2.57-8.68L252.56,12,252,10.42l-.24-.72a1.07,1.07,0,0,1-.09-.3q0-.18-.06-.3a.38.38,0,0,0-.09-.18l-.24-.72-.36-.72-.6-1.13a8.58,8.58,0,0,0-.78-.84L249.32,5,249,4.67a8.25,8.25,0,0,0-1.44-1.26,4.44,4.44,0,0,0-2.22-1,8.22,8.22,0,0,0-5,.35,6.46,6.46,0,0,0-2,1.08l-.18.21-.18.21-.36.36-.54.72a.94.94,0,0,1-.18.24.94.94,0,0,0-.18.24l-.24.48-.36.54-.12.24a.35.35,0,0,0-.12.23l-.6,1.2-.48,1.62L217.59,85.86h-2.21L233,8l.6-1.73q.12-.24.36-.66t.36-.66a.46.46,0,0,1,.06-.18.74.74,0,0,0,.06-.18l.29-.24.36-.54.48-.48.12-.12.24-.24.72-.59.36-.36a.69.69,0,0,1,.27-.12.69.69,0,0,0,.27-.12A10.83,10.83,0,0,1,239.92.6a10.62,10.62,0,0,1,2.82-.48,12.21,12.21,0,0,1,2.81.12,12.68,12.68,0,0,1,2.46.84,8,8,0,0,1,1.07.66q.6.42.72.48a.64.64,0,0,0,.21.12.64.64,0,0,1,.21.12l.48.47.36.36.24.24.24.24L252.26,5a6.75,6.75,0,0,1,.42.72l.36.9a.7.7,0,0,1,.12.18.7.7,0,0,0,.12.18l.12.47.24,1,.59,1.86,1.14,3.77,2.7,9.22L267,53.83l3.47,11.79,6.71-22.21L287.46,10.3l.6-1.86.3-1a.66.66,0,0,0,.12-.47l.24-.36.36-.9.36-.72.84-1.26.12-.12.12-.12.24-.24.54-.48.36-.35a2,2,0,0,0,.47-.36A17.35,17.35,0,0,1,294.23,1,12.78,12.78,0,0,1,297,.24a13,13,0,0,1,3.06,0,9.32,9.32,0,0,1,2.81.72,7.06,7.06,0,0,1,2.34,1.26A16.55,16.55,0,0,1,307,3.77l.36.54.24.24.24.24a14.09,14.09,0,0,0,.72,1.32L309.2,8a9.13,9.13,0,0,0,.48,1.86Zm-5.15,2.46,1.85,8.08,13.83,61.31h-2.21L305.13,24.67l-1.74-7.49L302.67,14l-.36-1.68c-.12-.47-.24-1-.36-1.61a5,5,0,0,0-1-2.1,1.87,1.87,0,0,0-1.68-.72,3.69,3.69,0,0,0-1.62,0,2.6,2.6,0,0,0-1.31.72,4.91,4.91,0,0,0-1,2.46l-.48,1.61-1,3.06-9.34,30.05L279.86,61l-2.45,7.61-1.32,4.55c-.16.48-.66,1.77-1.5,3.89a9.83,9.83,0,0,1-1,1.73,4.92,4.92,0,0,1-1.73,1.08,4.31,4.31,0,0,1-4.19-.48.7.7,0,0,0-.18-.12.7.7,0,0,1-.18-.12l-.36-.36c0-.07-.11-.18-.21-.32l-.24-.33a1.58,1.58,0,0,1-.15-.24q-.06-.12-.18-.42T266,77l-.36-1-.42-1-.36-1-.36-1.13-.24-1.08L259.62,56,250.7,25.51l-4.07-13.89a7,7,0,0,0-1-2.58A2.6,2.6,0,0,0,244.41,8a2.67,2.67,0,0,0-2.57.24,3.61,3.61,0,0,0-1.08,1.38,25.19,25.19,0,0,0-.84,2.69l-.77,3.3L223.22,85.86H221l16.47-72.51c0-.08.4-1.41,1.2-4,.44-1.12.67-1.7.71-1.74a3.9,3.9,0,0,1,1.5-1.49,5.78,5.78,0,0,1,4.19-.36A4.65,4.65,0,0,1,246.75,7a8.08,8.08,0,0,1,.9,1.55c.8,2,1.27,3.36,1.43,3.95s.39,1.22.69,2.22.53,1.74.69,2.21l2.34,8,8.92,30.53L266,70.11l.84,3.24c.08.2.23.6.45,1.19s.35,1,.39,1.14a3.26,3.26,0,0,0,1.13,1.92,2.7,2.7,0,0,0,2.46.36,2.46,2.46,0,0,0,1.2-1.2,7.09,7.09,0,0,0,1-2.7l8.92-28.91,9.58-31c.2-.6.48-1.41.84-2.42s.58-1.63.66-1.83l.72-1.86a8,8,0,0,1,1.2-1.61,6.72,6.72,0,0,1,2-.72,7.58,7.58,0,0,1,2.22-.12,5.48,5.48,0,0,1,2,.72A4.05,4.05,0,0,1,303,7.84l.39.93.39.93a11.84,11.84,0,0,0,.6,2.1c.12.51.28,1.24.48,2.18S305.25,15.65,305.37,16.17Zm-5,2.45,1.49,6.77,13.6,60.17h-2.22L299.74,25.87l-1.38-6.23L289.8,47.3l-4.67,15.21-2.58,8.26-2.33,7.61c-.08.2-.2.47-.36.83s-.28.64-.36.84a7.12,7.12,0,0,1-.42.69,7.12,7.12,0,0,0-.42.69l-.12.12-.12.12-.24.24-.42.48-.23.24-.24.24-.36.42a15,15,0,0,1-2,1.19,9.25,9.25,0,0,1-2.57.84,9.81,9.81,0,0,1-5.63-.36,3.17,3.17,0,0,1-.69-.24l-.51-.24a9.58,9.58,0,0,0-1-.6,7.94,7.94,0,0,1-.84-.77,2.62,2.62,0,0,1-.83-.72l-.54-.48-.24-.36-.24-.24-.72-1.38q-.12-.3-.36-.84c-.16-.36-.28-.63-.36-.83l-.54-1.86-5.51-18.92L243.58,21l-14.73,64.9h-2.22l15.21-67.12.36-1.2a1.42,1.42,0,0,1,.18-.6.94.94,0,0,1,.48-.53,1.27,1.27,0,0,1,1.2-.12,1.12,1.12,0,0,0,.23.18,1.79,1.79,0,0,1,.24.18,1.86,1.86,0,0,1,.24.65l2.76,9,8.8,30.54,5.27,17.66.36,1.62q.12.24.3.72t.3.72l.66,1.25a6.51,6.51,0,0,0,.71,1l.18.33a3.28,3.28,0,0,0,.21.33,2.25,2.25,0,0,0,.21.24,5.82,5.82,0,0,0,.72.84,2.69,2.69,0,0,0,.39.3,2.69,2.69,0,0,1,.39.3,5.26,5.26,0,0,0,1.08.6,7.45,7.45,0,0,0,5,.54,11.08,11.08,0,0,0,2.33-1,10.6,10.6,0,0,0,1.5-1.44l.36-.42a1.79,1.79,0,0,0,.18-.24,1.79,1.79,0,0,1,.18-.24c.36-.56.56-.87.6-1s.2-.32.35-.62.28-.51.36-.63a12.16,12.16,0,0,1,.66-1.44l1.92-6.41,2.45-8L287.7,46.7l8.87-28.56.35-1.2a6.09,6.09,0,0,0,.24-.59,1.93,1.93,0,0,1,.36-.66,1.3,1.3,0,0,1,1.26-.24q.84.3,1,.72c.08.24.18.65.3,1.22A12.3,12.3,0,0,0,300.34,18.62Z"/><path class="cls-1" d="M237.43,13.38c0-.08.4-1.42,1.19-4q.66-1.68.72-1.74a3.86,3.86,0,0,1,1.5-1.5A5.82,5.82,0,0,1,245,5.78,4.62,4.62,0,0,1,246.71,7a8.31,8.31,0,0,1,.9,1.56c.79,2,1.27,3.35,1.43,3.95s.39,1.22.69,2.22.53,1.73.69,2.21l2.33,8,8.93,30.53L266,70.14l.83,3.23q.12.3.45,1.2t.39,1.14a3.32,3.32,0,0,0,1.14,1.92,2.73,2.73,0,0,0,2.46.35,2.42,2.42,0,0,0,1.19-1.19,6.92,6.92,0,0,0,1-2.7l8.92-28.92L292,14.22q.3-.9.84-2.43c.36-1,.58-1.62.66-1.82l.72-1.86a8.51,8.51,0,0,1,1.19-1.62,6.79,6.79,0,0,1,2-.71,7.58,7.58,0,0,1,2.22-.12,5.81,5.81,0,0,1,2,.71A4,4,0,0,1,303,7.87l.39.93.39.93a11.55,11.55,0,0,0,.6,2.09q.18.78.48,2.19c.19.94.35,1.67.47,2.18l1.86,8.09L321,85.59l2,0L309.13,23.83l-1.86-8.09c-.12-.51-.27-1.22-.47-2.15s-.36-1.69-.48-2.22l0-.12,0-.11a10.83,10.83,0,0,1-.51-1.72l0-.22L305.62,9c-.08-.21-.22-.53-.4-1s-.3-.69-.37-.88L304.79,7l-.08-.13a5.86,5.86,0,0,0-2.13-2.2,7.51,7.51,0,0,0-2.68-1,6,6,0,0,0-.89-.06,13,13,0,0,0-2,.18l-.1,0a8.82,8.82,0,0,0-2.56.94l-.23.13-.19.19a10,10,0,0,0-1.51,2l-.08.14-.77,2c-.08.21-.31.85-.69,1.91s-.64,1.85-.86,2.5l-9.58,30.95-9,29,0,.1a5.13,5.13,0,0,1-.67,1.91l-.07.09-.06.11a1.56,1.56,0,0,1-.21.31h-.15A.61.61,0,0,1,270,76a1.41,1.41,0,0,1-.39-.79,13.16,13.16,0,0,0-.45-1.34c-.19-.52-.33-.89-.42-1.12l-.82-3.18L263.6,54.91l-8.93-30.54-2.35-8c-.16-.47-.38-1.19-.67-2.16s-.53-1.72-.69-2.22-.43-1.4-1.49-4.1l0-.08,0-.09a8.93,8.93,0,0,0-1.2-2,6.71,6.71,0,0,0-2.36-1.75l-.14-.06-.15,0a9,9,0,0,0-2.21-.29,7.67,7.67,0,0,0-3.47.84,5.83,5.83,0,0,0-2.18,2.12,14.57,14.57,0,0,0-.92,2.13l0,.14c-.89,2.88-1.16,3.79-1.25,4.21l-16.55,72.9H221Z"/><path class="cls-1" d="M112.94,3.35V5.57H71.54C68.5,5.57,69,11,69,11V77.42s.2,2.74,2.73,2.74h41.24v2.21l-42.47-.11c-2.58,0-3.2-2.66-3.36-3a16.94,16.94,0,0,1-.36-3.66V10.12c0-4.79,1.45-6.77,3.72-6.77Zm-36,40.17h31v2.22h-31"/><path class="cls-1" d="M126.47,86.12l-1.83-.81C125,84.53,159.5,7.05,160.38,5a3.9,3.9,0,0,1,3.54-2.18,4.28,4.28,0,0,1,4,2.1c1.16,2.16,34,77.19,35.45,80.39l-1.83.8c-11.85-27-34.49-78.57-35.38-80.24a2.35,2.35,0,0,0-2.2-1,2,2,0,0,0-1.78,1C161.33,7.85,127.89,82.93,126.47,86.12Z"/><rect class="cls-1" x="24.3" y="14.47" width="2" height="72.01"/><rect class="cls-1" y="4" width="54.37" height="2"/></g></g></svg>