<svg xmlns="http://www.w3.org/2000/svg" viewBox="0 0 326.63 86.94"><defs><style>.cls-1{fill:#fff;}.cls-2{fill:none;stroke:#fff;stroke-miterlimit:10;stroke-width:2px;}</style></defs><title>team2</title><g id="Layer_2" data-name="Layer 2"><g id="Layer_6" data-name="Layer 6"><path d="M0,3.17V1.08H54.67V3.17ZM0,8.8V6.65H54.67V8.8Zm21.08,5.69H0V12.27H54.67v2.22H34.43V86.94H32.27V14.49H28.92V86.94H26.7V14.49H23.29V86.94H21.08Z"/><path d="M88.28,0h24.49V2.22H73.43a21.17,21.17,0,0,0-2.69.12,11.36,11.36,0,0,0-2.22.59L68,3.11l-.48.18-.89.9a7.24,7.24,0,0,0-.84,1.92,8.13,8.13,0,0,0-.36,2.57V77.12a8.13,8.13,0,0,0,.36,2.57,8.83,8.83,0,0,0,.84,2,4.07,4.07,0,0,0,.89.72,5.38,5.38,0,0,0,1,.48,8.86,8.86,0,0,0,2.22.65h42v2.16H72.71a22.51,22.51,0,0,1-3.23-.12A6.55,6.55,0,0,1,67,84.72l-.48-.27a2.63,2.63,0,0,1-.48-.33,4.69,4.69,0,0,1-1-1,8.07,8.07,0,0,1-1.26-2,7.74,7.74,0,0,1-.6-3.11V7.72a6.51,6.51,0,0,1,.6-2.93,8.44,8.44,0,0,1,1.26-2.1,2.82,2.82,0,0,1,1-.95,2,2,0,0,1,1-.66,4.63,4.63,0,0,1,2.45-1A29.79,29.79,0,0,1,72.71,0H88.28Zm-12,5.63h36.52V7.84H71.58q-.12,0-.48.36V77.48l.48.48h41.19v2.21H76.25q-.6-.06-1.83-.06t-1.83-.06a10.35,10.35,0,0,1-1.85-.12,2.66,2.66,0,0,1-.84-.12.73.73,0,0,1-.66-.48,16.78,16.78,0,0,1-.36-3.65V10.18a17.09,17.09,0,0,1,.36-3.71,1.4,1.4,0,0,1,.66-.6,2.06,2.06,0,0,0,.84-.12q.3,0,.93-.06c.41,0,.72-.06.92-.06Zm.36,5.63h36.16v2.21h-36v22.1h31v2.21h-31v3.41h31v2.22h-31v3.41h31V49h-31V72.33h36v2.21h-38a.21.21,0,0,1-.24-.24V11.38a.35.35,0,0,1,.24-.12h1.86Z"/><path d="M194.17,57.48q7.31,17,12.51,28.38h-2.34Q202.56,82,192.25,58.38q-1.92-4.44-6.08-13.92t-5.36-12.19q-4.37-10.05-6.34-14.73c-1.2-2.67-2.1-4.73-2.7-6.16q-.24-.54-.75-1.59c-.34-.7-.59-1.23-.74-1.59L170,7.48l-.36-.71a2.53,2.53,0,0,0-.48-.66,2.78,2.78,0,0,0-.36-.6,12.57,12.57,0,0,0-3.11-2.7,3.22,3.22,0,0,0-.6-.35,4,4,0,0,0-1.2-.24,4,4,0,0,0-1,.35l-.3.18a1.8,1.8,0,0,1-.3.18A14.56,14.56,0,0,0,159.14,6a5,5,0,0,0-.36.66l-.42.71-.72,1.56A33.4,33.4,0,0,1,156.32,12l-2,4.52c-1,2.21-1.75,3.92-2.31,5.11q-5.74,13-6.52,14.73-.9,2-5.18,11.77t-6.2,14.22q-2,4.42-4.4,9.94t-3.83,8.74c-.94,2.16-1.67,3.75-2.19,4.79h-2.33c.36-.8,1-2.31,2-4.55s2.32-5.23,4-9,3.23-7.35,4.79-10.78q3.35-7.66,11.43-26,1.32-2.82,3.71-8.39T150,20.84q2.09-4.56,4.67-10.66c.68-1.36,1.26-2.64,1.73-3.83l.84-1.8.48-.9q0-.12.24-.36l.24-.36.3-.24c0-.07.08-.19.24-.35l.48-.48.48-.33.48-.33,1-.48L162,.36h.24l.24-.12h.36a2.66,2.66,0,0,1,1.14-.12h1.32a1.65,1.65,0,0,1,.33.09l.38.15a7.58,7.58,0,0,1,3.72,2.1,1.26,1.26,0,0,1,.48.59l.24.36.12.12.11.24.48.9.42,1c0,.12.6,1.4,1.68,3.83.36,1,.94,2.28,1.74,3.95s1.29,2.76,1.49,3.24q2,4.67,6.35,14.72Q189.8,47.36,194.17,57.48ZM177.76,33.59q2.4,5.5,6.35,14.7T189,59.69q9.57,21.69,11.67,26.17h-2.45Q197,83,193.09,74.15l-6-13.56q-10.54-24.3-11.32-26.16l-3.62-8.17c-1.58-3.58-2.52-5.74-2.84-6.5s-.82-2-1.5-3.47l-1.32-2.94c-.12-.32-.58-1.37-1.37-3.17l-.36-.72a.47.47,0,0,0-.72-.24q-.66,0-.66.48l-.36.84q-2.64,5.93-33.23,75.32h-2.45q1.31-2.82,9.82-22.09,3.53-8.15,11.55-26,1-2.22,3.05-7.12c1.4-3.28,2.5-5.81,3.3-7.61.28-.6.67-1.44,1.16-2.54s1-2.1,1.35-3,.76-1.74,1.08-2.54l1-2.22c.4-.79.72-1.49,1-2.09.24-.44.59-1.06,1.07-1.86s.82-1.4,1-1.79l.48-.78a.75.75,0,0,1,.78-.6.93.93,0,0,1,1.08.24.7.7,0,0,1,.12.18.7.7,0,0,0,.12.18l.24.54c0,.08.3.55.8,1.4s.89,1.57,1.17,2.13q.18.36.51,1.08c.22.48.37.81.45,1s.29.61.51,1.11.39.87.51,1.11q.3.72.9,2.1c.39.91.69,1.63.89,2.15L174.41,26Q176.62,31,177.76,33.59Zm-5.15,2.22q7,16,11.38,26.1,4.13,9.47,10.59,24h-2.33q-4.19-9.35-8.5-19.4H144.41q-1.86,4.26-4.76,10.75t-3.8,8.65h-2.34q5.16-11.67,30.18-68.56l.12-.24a.56.56,0,0,0,.12-.18c0-.07.08-.11.12-.11a.5.5,0,0,1,.36.17l.12.24.6,1.32.57,1.29.56,1.29c.8,1.79,1.9,4.33,3.3,7.6S172,34.33,172.61,35.81ZM145.37,64.25h37.42L182,62.6,181.29,61H146.86c-.16.36-.4.91-.74,1.65Zm33.47-8.81H149.32l-.75,1.65-.75,1.65h32.51l-.74-1.65ZM164.17,21.67q-8.56,19.47-14,31.56h27.72q-2.46-5.56-7.19-16.5T164.17,21.67Z"/><path d="M310.41,13.71l2.09,9.34,14.13,62.51h-2.21l-14-62.15-2-8.68-.72-3.35a3.68,3.68,0,0,1-.24-.75,5.9,5.9,0,0,0-.24-.81l-.35-1.5-.6-1.19-.12-.24-.3-.24-.24-.54a11.19,11.19,0,0,0-1.32-1.68,7.54,7.54,0,0,0-2-1.38,9,9,0,0,0-2.57-.71,8.52,8.52,0,0,0-5.15.83,16.77,16.77,0,0,0-1.74,1.26,4.18,4.18,0,0,0-.35.42q-.24.3-.36.42t-.36.48q-.24.3-.36.48l-.6,1.13a2.28,2.28,0,0,0-.42.6l-.24.72-.12.36a.64.64,0,0,0-.12.21.64.64,0,0,1-.12.21l-.24.84-.48,1.62L279.15,44l-7.6,24.91a2.12,2.12,0,0,1-.18.29c-.08.12-.14.23-.18.3a1.88,1.88,0,0,1-.48.36,1.38,1.38,0,0,1-1.26-.12,2.89,2.89,0,0,1-.48-1.19l-.35-1.26-3.84-12.87-8.92-30.54-2.57-8.68L252.45,12l-.54-1.62-.24-.72a1.07,1.07,0,0,1-.09-.3q0-.18-.06-.3a.38.38,0,0,0-.09-.18l-.24-.72-.36-.72-.6-1.13a9.37,9.37,0,0,0-.77-.84L249.22,5l-.36-.36a8.25,8.25,0,0,0-1.44-1.26,4.44,4.44,0,0,0-2.22-1,8.18,8.18,0,0,0-5,.35,6.5,6.5,0,0,0-2,1.08L238,4.1l-.18.21-.36.36-.54.72a.94.94,0,0,1-.18.24.94.94,0,0,0-.18.24l-.24.48-.36.54-.12.24a.35.35,0,0,0-.12.23l-.59,1.2-.48,1.62L217.48,85.86h-2.21L232.93,8l.6-1.73q.12-.24.36-.66t.36-.66a.46.46,0,0,1,.06-.18.46.46,0,0,0,.06-.18l.3-.24.36-.54.47-.48.12-.12.24-.24.72-.59.36-.36a.69.69,0,0,1,.27-.12.69.69,0,0,0,.27-.12A10.85,10.85,0,0,1,239.82.6a10.49,10.49,0,0,1,2.81-.48,12.21,12.21,0,0,1,2.81.12,12.68,12.68,0,0,1,2.46.84,8.76,8.76,0,0,1,1.08.66,8,8,0,0,0,.72.48.49.49,0,0,0,.2.12.64.64,0,0,1,.21.12l.48.47.36.36.24.24.24.24L252.15,5a6.75,6.75,0,0,1,.42.72l.36.9a.7.7,0,0,1,.12.18.7.7,0,0,0,.12.18l.12.47.24,1,.6,1.86,1.13,3.77,2.7,9.22,8.92,30.54,3.47,11.79,6.71-22.21,10.3-33.11.6-1.86.29-1a.66.66,0,0,0,.12-.47l.24-.36.36-.9.36-.72.84-1.26.12-.12.12-.12.24-.24.54-.48.36-.35A1.88,1.88,0,0,0,292,2.1,16.66,16.66,0,0,1,294.12,1a12.72,12.72,0,0,1,2.82-.72,13,13,0,0,1,3.05,0A9.32,9.32,0,0,1,302.8,1a7.06,7.06,0,0,1,2.34,1.26,15.93,15.93,0,0,1,1.74,1.55l.35.54.24.24.24.24a14.09,14.09,0,0,0,.72,1.32L309.09,8a9.13,9.13,0,0,0,.48,1.86Zm-5.15,2.46,1.85,8.08L321,85.56h-2.22L305,24.67l-1.74-7.49L302.56,14l-.35-1.68c-.12-.47-.24-1-.36-1.61a4.86,4.86,0,0,0-1-2.1,1.87,1.87,0,0,0-1.68-.72,3.69,3.69,0,0,0-1.62,0,2.69,2.69,0,0,0-1.31.72,4.91,4.91,0,0,0-1,2.46l-.48,1.61-1,3.06-9.34,30.05L279.75,61l-2.45,7.61L276,73.11c-.16.48-.66,1.77-1.5,3.89a10.49,10.49,0,0,1-1,1.73,5,5,0,0,1-1.74,1.08,4.31,4.31,0,0,1-4.19-.48.7.7,0,0,0-.18-.12.7.7,0,0,1-.18-.12l-.36-.36c0-.07-.11-.18-.21-.32l-.24-.33a1.58,1.58,0,0,1-.15-.24q-.06-.12-.18-.42t-.18-.42l-.36-1-.42-1-.36-1-.36-1.13-.24-1.08L259.51,56l-8.92-30.53-4.07-13.89a7,7,0,0,0-1-2.58A2.59,2.59,0,0,0,244.31,8a2.69,2.69,0,0,0-2.58.24,3.61,3.61,0,0,0-1.08,1.38,23.27,23.27,0,0,0-.83,2.69l-.78,3.3L223.11,85.86H220.9l16.46-72.51c0-.08.4-1.41,1.2-4q.66-1.68.72-1.74a3.88,3.88,0,0,1,1.49-1.49A5.78,5.78,0,0,1,245,5.75,4.65,4.65,0,0,1,246.64,7a8.08,8.08,0,0,1,.9,1.55c.8,2,1.28,3.36,1.44,3.95s.39,1.22.69,2.22.52,1.74.68,2.21l2.34,8,8.92,30.53,4.31,14.67.84,3.24c.08.2.23.6.45,1.19s.35,1,.39,1.14a3.32,3.32,0,0,0,1.14,1.92,2.67,2.67,0,0,0,2.45.36,2.46,2.46,0,0,0,1.2-1.2,6.92,6.92,0,0,0,1-2.7l8.92-28.91,9.58-31c.2-.6.48-1.41.83-2.42s.58-1.63.66-1.83l.72-1.86a8,8,0,0,1,1.2-1.61,6.79,6.79,0,0,1,2-.72,7.5,7.5,0,0,1,2.21-.12,5.6,5.6,0,0,1,2,.72,4.11,4.11,0,0,1,1.43,1.49l.39.93.39.93a11.84,11.84,0,0,0,.6,2.1c.12.51.28,1.24.48,2.18S305.14,15.65,305.26,16.17Zm-5,2.45,1.5,6.77,13.59,60.17H313.1L299.63,25.87l-1.38-6.23L289.69,47.3,285,62.51l-2.57,8.26-2.34,7.61c-.08.2-.2.47-.36.83s-.28.64-.36.84a7.12,7.12,0,0,1-.42.69,7.12,7.12,0,0,0-.42.69l-.11.12-.13.12-.23.24-.42.48-.24.24-.24.24-.36.42a15,15,0,0,1-2,1.19,9.15,9.15,0,0,1-2.57.84,9.81,9.81,0,0,1-5.63-.36,3.17,3.17,0,0,1-.69-.24l-.51-.24a9.58,9.58,0,0,0-1-.6,7.27,7.27,0,0,1-.83-.77,2.69,2.69,0,0,1-.84-.72l-.54-.48-.24-.36-.24-.24L261,79.93q-.12-.3-.36-.84c-.16-.36-.28-.63-.36-.83l-.54-1.86-5.5-18.92L243.47,21l-14.73,64.9h-2.22l15.21-67.12.36-1.2a1.42,1.42,0,0,1,.18-.6.94.94,0,0,1,.48-.53,1.27,1.27,0,0,1,1.2-.12,1.79,1.79,0,0,0,.24.18l.24.18a1.86,1.86,0,0,1,.24.65l2.75,9,8.8,30.54,5.27,17.66.36,1.62q.12.24.3.72t.3.72l.66,1.25a7.15,7.15,0,0,0,.72,1,2.65,2.65,0,0,0,.17.33,3.28,3.28,0,0,0,.21.33,2.25,2.25,0,0,0,.21.24,5.82,5.82,0,0,0,.72.84,2.69,2.69,0,0,0,.39.3,2.69,2.69,0,0,1,.39.3,5.26,5.26,0,0,0,1.08.6,7.45,7.45,0,0,0,5,.54,10.86,10.86,0,0,0,2.33-1,10.6,10.6,0,0,0,1.5-1.44l.36-.42a1.79,1.79,0,0,0,.18-.24,1.79,1.79,0,0,1,.18-.24c.36-.56.56-.87.6-1s.2-.32.36-.62.28-.51.36-.63a13.17,13.17,0,0,1,.65-1.44l1.92-6.41,2.46-8L287.6,46.7l8.86-28.56.36-1.2a6.09,6.09,0,0,0,.24-.59,1.93,1.93,0,0,1,.36-.66,1.27,1.27,0,0,1,1.25-.24q.84.3,1,.72c.08.24.18.65.3,1.22A12.3,12.3,0,0,0,300.23,18.62Z"/><path class="cls-1" d="M237.32,13.38c0-.08.4-1.42,1.2-4,.43-1.12.67-1.7.71-1.74a3.86,3.86,0,0,1,1.5-1.5,5.83,5.83,0,0,1,4.19-.35A4.62,4.62,0,0,1,246.6,7a8.31,8.31,0,0,1,.9,1.56c.8,2,1.27,3.35,1.43,3.95s.39,1.22.69,2.22.53,1.73.69,2.21l2.34,8,8.92,30.53,4.31,14.67.84,3.23q.12.3.45,1.2t.39,1.14a3.26,3.26,0,0,0,1.13,1.92,2.73,2.73,0,0,0,2.46.35,2.39,2.39,0,0,0,1.2-1.19,7.09,7.09,0,0,0,1-2.7l8.92-28.92,9.58-30.95q.3-.9.84-2.43c.36-1,.58-1.62.66-1.82l.72-1.86a8.1,8.1,0,0,1,1.2-1.62,6.72,6.72,0,0,1,2-.71,7.58,7.58,0,0,1,2.22-.12,5.66,5.66,0,0,1,2,.71,4,4,0,0,1,1.44,1.5l.39.93.39.93a11.55,11.55,0,0,0,.6,2.09q.18.78.48,2.19c.2.94.36,1.67.48,2.18l1.85,8.09L320.9,85.59l2,0L309,23.83l-1.86-8.09c-.11-.51-.27-1.22-.47-2.15s-.36-1.69-.48-2.22l0-.12,0-.11a9.39,9.39,0,0,1-.5-1.72l0-.22L305.51,9c-.08-.21-.21-.53-.4-1l-.37-.88L304.68,7l-.08-.13a5.86,5.86,0,0,0-2.13-2.2,7.53,7.53,0,0,0-2.67-1,6.17,6.17,0,0,0-.9-.06,13.14,13.14,0,0,0-2,.18l-.1,0a8.82,8.82,0,0,0-2.56.94l-.23.13-.19.19a10,10,0,0,0-1.5,2l-.09.14-.77,2c-.08.21-.31.85-.68,1.91s-.65,1.85-.87,2.5l-9.58,30.95-8.95,29,0,.1a4.94,4.94,0,0,1-.67,1.91l-.07.09-.06.11a1.56,1.56,0,0,1-.21.31h-.14a.62.62,0,0,1-.37-.12,1.48,1.48,0,0,1-.39-.79,13.16,13.16,0,0,0-.45-1.34c-.19-.52-.33-.89-.42-1.12l-.82-3.18-4.31-14.67-8.92-30.54-2.36-8c-.16-.47-.38-1.19-.67-2.16s-.53-1.72-.69-2.22-.43-1.4-1.49-4.1l0-.08,0-.09a8.8,8.8,0,0,0-1.21-2,6.76,6.76,0,0,0-2.35-1.75l-.15-.06-.15,0a9,9,0,0,0-2.2-.29,7.68,7.68,0,0,0-3.48.84,5.74,5.74,0,0,0-2.17,2.12,13,13,0,0,0-.93,2.13l-.05.14c-.88,2.88-1.16,3.79-1.24,4.21L218.8,85.89h2Z"/><path class="cls-1" d="M112.83,3.35V5.57H71.44c-3,0-2.58,5.39-2.58,5.39V77.42s.2,2.74,2.73,2.74h41.24v2.21l-42.47-.11c-2.58,0-3.2-2.66-3.35-3a16.94,16.94,0,0,1-.36-3.66V10.12c0-4.79,1.44-6.77,3.71-6.77Zm-36,40.17h31v2.22h-31"/><path class="cls-2" d="M202.38,85.72S168.12,7.55,167,5.41s-4.88-2.07-5.78,0-35.74,80.31-35.74,80.31"/><line class="cls-2" x1="25.19" y1="86.48" x2="25.19" y2="14.47"/></g></g></svg>